<?xml version="1.0" standalone="yes"?>
<svg xmlns="http://www.w3.org/2000/svg" width="600" height="600">
<path style="fill:#ffffff; stroke:none;" d="M0 0L0 600L600 600L600 0L0 0z"/>
<path style="fill:#c9e0f0; stroke:none;" d="M307 165L308 166L307 165z"/>
<path style="fill:#6ea9d6; stroke:none;" d="M308.667 165.333L309.333 165.667L308.667 165.333z"/>
<path style="fill:#3185c5; stroke:none;" d="M328 360L407 360C417.165 360 431.997 362.633 440.96 356.853C450.05 350.99 449 340.409 449 331L449 268C449 258.843 449.761 248.823 440.96 243.147C431.997 237.367 417.166 240 407 240L328 240L328 190C328 182.972 329.359 174.821 323.671 169.532C312.59 159.232 300.859 169.729 292 177.081C268.832 196.309 245.414 215.27 222 234.197C203.937 248.797 185.908 263.459 168 278.25C160.895 284.118 151.08 289.645 151.08 300C151.08 310.355 160.895 315.882 168 321.75C185.908 336.541 203.937 351.203 222 365.803C245.414 384.73 268.832 403.692 292 422.919C300.859 430.271 312.59 440.768 323.671 430.468C329.359 425.179 328 417.028 328 410L328 360z"/>
<path style="fill:#6ea9d6; stroke:none;" d="M316 165L317 166L316 165z"/>
<path style="fill:#a8cbe6; stroke:none;" d="M317 165L318 166L317 165M305 166L306 167L305 166z"/>
<path style="fill:#6ea9d6; stroke:none;" d="M319 166L320 167L319 166z"/>
<path style="fill:#c9e0f0; stroke:none;" d="M303 167L304 168L303 167z"/>
<path style="fill:#a8cbe6; stroke:none;" d="M321 167L322 168L321 167M302 168L303 169L302 168z"/>
<path style="fill:#6ea9d6; stroke:none;" d="M322 168L323 169L322 168M301 169L302 170L301 169z"/>
<path style="fill:#c9e0f0; stroke:none;" d="M324 169L325 170L324 169z"/>
<path style="fill:#6ea9d6; stroke:none;" d="M300 170L301 171L300 170z"/>
<path style="fill:#c9e0f0; stroke:none;" d="M298 171L299 172L298 171z"/>
<path style="fill:#6ea9d6; stroke:none;" d="M325 171L326 172L325 171z"/>
<path style="fill:#a8cbe6; stroke:none;" d="M297 172L298 173L297 172M326 172L327 173L326 172z"/>
<path style="fill:#6ea9d6; stroke:none;" d="M296 173L297 174L296 173M295 174L296 175L295 174z"/>
<path style="fill:#a8cbe6; stroke:none;" d="M327 174L328 175L327 174z"/>
<path style="fill:#c9e0f0; stroke:none;" d="M293 175L294 176L293 175z"/>
<path style="fill:#a8cbe6; stroke:none;" d="M292 176L293 177L292 176z"/>
<path style="fill:#c9e0f0; stroke:none;" d="M328 176L329 177L328 176z"/>
<path style="fill:#a8cbe6; stroke:none;" d="M291 177L292 178L291 177M328.333 177.667L328.667 178.333L328.333 177.667z"/>
<path style="fill:#6ea9d6; stroke:none;" d="M290 178L291 179L290 178z"/>
<path style="fill:#c9e0f0; stroke:none;" d="M288 179L289 180L288 179z"/>
<path style="fill:#6ea9d6; stroke:none;" d="M289 179L290 180L289 179M328 179L328 240L329 240L329 199L328 179z"/>
<path style="fill:#c9e0f0; stroke:none;" d="M287 180L288 181L287 180z"/>
<path style="fill:#a8cbe6; stroke:none;" d="M286 181L287 182L286 181z"/>
<path style="fill:#6ea9d6; stroke:none;" d="M285 182L286 183L285 182M284 183L285 184L284 183z"/>
<path style="fill:#c9e0f0; stroke:none;" d="M282 184L283 185L282 184z"/>
<path style="fill:#a8cbe6; stroke:none;" d="M281 185L282 186L281 185M280 186L281 187L280 186z"/>
<path style="fill:#6ea9d6; stroke:none;" d="M279 187L280 188L279 187z"/>
<path style="fill:#c9e0f0; stroke:none;" d="M277 188L278 189L277 188z"/>
<path style="fill:#6ea9d6; stroke:none;" d="M278 188L279 189L278 188z"/>
<path style="fill:#c9e0f0; stroke:none;" d="M276 189L277 190L276 189z"/>
<path style="fill:#a8cbe6; stroke:none;" d="M275 190L276 191L275 190z"/>
<path style="fill:#6ea9d6; stroke:none;" d="M274 191L275 192L274 191M273 192L274 193L273 192z"/>
<path style="fill:#c9e0f0; stroke:none;" d="M271 193L272 194L271 193z"/>
<path style="fill:#a8cbe6; stroke:none;" d="M270 194L271 195L270 194z"/>
<path style="fill:#6ea9d6; stroke:none;" d="M269 195L270 196L269 195M268 196L269 197L268 196z"/>
<path style="fill:#c9e0f0; stroke:none;" d="M266 197L267 198L266 197z"/>
<path style="fill:#a8cbe6; stroke:none;" d="M265 198L266 199L265 198M264 199L265 200L264 199z"/>
<path style="fill:#6ea9d6; stroke:none;" d="M263 200L264 201L263 200M262 201L263 202L262 201z"/>
<path style="fill:#c9e0f0; stroke:none;" d="M260 202L261 203L260 202z"/>
<path style="fill:#a8cbe6; stroke:none;" d="M259 203L260 204L259 203z"/>
<path style="fill:#6ea9d6; stroke:none;" d="M258 204L259 205L258 204M257 205L258 206L257 205z"/>
<path style="fill:#c9e0f0; stroke:none;" d="M255 206L256 207L255 206z"/>
<path style="fill:#a8cbe6; stroke:none;" d="M254 207L255 208L254 207M253 208L254 209L253 208z"/>
<path style="fill:#6ea9d6; stroke:none;" d="M252 209L253 210L252 209z"/>
<path style="fill:#c9e0f0; stroke:none;" d="M250 210L251 211L250 210z"/>
<path style="fill:#6ea9d6; stroke:none;" d="M251 210L252 211L251 210z"/>
<path style="fill:#c9e0f0; stroke:none;" d="M249 211L250 212L249 211z"/>
<path style="fill:#a8cbe6; stroke:none;" d="M248 212L249 213L248 212z"/>
<path style="fill:#6ea9d6; stroke:none;" d="M247 213L248 214L247 213M246 214L247 215L246 214z"/>
<path style="fill:#c9e0f0; stroke:none;" d="M244 215L245 216L244 215z"/>
<path style="fill:#a8cbe6; stroke:none;" d="M243 216L244 217L243 216M242 217L243 218L242 217z"/>
<path style="fill:#6ea9d6; stroke:none;" d="M241 218L242 219L241 218z"/>
<path style="fill:#c9e0f0; stroke:none;" d="M239 219L240 220L239 219z"/>
<path style="fill:#6ea9d6; stroke:none;" d="M240 219L241 220L240 219z"/>
<path style="fill:#c9e0f0; stroke:none;" d="M238 220L239 221L238 220z"/>
<path style="fill:#a8cbe6; stroke:none;" d="M237 221L238 222L237 221z"/>
<path style="fill:#6ea9d6; stroke:none;" d="M236 222L237 223L236 222M235 223L236 224L235 223z"/>
<path style="fill:#c9e0f0; stroke:none;" d="M233 224L234 225L233 224z"/>
<path style="fill:#a8cbe6; stroke:none;" d="M232 225L233 226L232 225z"/>
<path style="fill:#6ea9d6; stroke:none;" d="M231 226L232 227L231 226M230 227L231 228L230 227z"/>
<path style="fill:#c9e0f0; stroke:none;" d="M228 228L229 229L228 228M227 229L228 230L227 229z"/>
<path style="fill:#a8cbe6; stroke:none;" d="M226 230L227 231L226 230z"/>
<path style="fill:#6ea9d6; stroke:none;" d="M225 231L226 232L225 231M224 232L225 233L224 232z"/>
<path style="fill:#c9e0f0; stroke:none;" d="M222 233L223 234L222 233z"/>
<path style="fill:#a8cbe6; stroke:none;" d="M221 234L222 235L221 234z"/>
<path style="fill:#6ea9d6; stroke:none;" d="M220 235L221 236L220 235M219 236L220 237L219 236z"/>
<path style="fill:#c9e0f0; stroke:none;" d="M217 237L218 238L217 237z"/>
<path style="fill:#a8cbe6; stroke:none;" d="M216 238L217 239L216 238M215 239L216 240L215 239z"/>
<path style="fill:#6ea9d6; stroke:none;" d="M214 240L215 241L214 240M433.667 240.333L434.333 240.667L433.667 240.333z"/>
<path style="fill:#a8cbe6; stroke:none;" d="M435 240L436 241L435 240z"/>
<path style="fill:#c9e0f0; stroke:none;" d="M436 240L437 241L436 240M212 241L213 242L212 241z"/>
<path style="fill:#6ea9d6; stroke:none;" d="M213 241L214 242L213 241z"/>
<path style="fill:#a8cbe6; stroke:none;" d="M438 241L439 242L438 241z"/>
<path style="fill:#c9e0f0; stroke:none;" d="M211 242L212 243L211 242z"/>
<path style="fill:#a8cbe6; stroke:none;" d="M440 242L441 243L440 242M210 243L211 244L210 243z"/>
<path style="fill:#6ea9d6; stroke:none;" d="M441 243L442 244L441 243M209 244L210 245L209 244z"/>
<path style="fill:#c9e0f0; stroke:none;" d="M443 244L444 245L443 244z"/>
<path style="fill:#6ea9d6; stroke:none;" d="M208 245L209 246L208 245z"/>
<path style="fill:#c9e0f0; stroke:none;" d="M444 245L445 246L444 245M206 246L207 247L206 246z"/>
<path style="fill:#a8cbe6; stroke:none;" d="M205 247L206 248L205 247z"/>
<path style="fill:#6ea9d6; stroke:none;" d="M445 247L446 248L445 247z"/>
<path style="fill:#a8cbe6; stroke:none;" d="M204 248L205 249L204 248M446 248L447 249L446 248z"/>
<path style="fill:#6ea9d6; stroke:none;" d="M203 249L204 250L203 249z"/>
<path style="fill:#c9e0f0; stroke:none;" d="M201 250L202 251L201 250z"/>
<path style="fill:#6ea9d6; stroke:none;" d="M202 250L203 251L202 250M447 250L448 251L447 250z"/>
<path style="fill:#c9e0f0; stroke:none;" d="M200 251L201 252L200 251z"/>
<path style="fill:#a8cbe6; stroke:none;" d="M199 252L200 253L199 252M448 252L449 253L448 252z"/>
<path style="fill:#6ea9d6; stroke:none;" d="M198 253L199 254L198 253M448 253L449 254L448 253M197 254L198 255L197 254z"/>
<path style="fill:#c9e0f0; stroke:none;" d="M195 255L196 256L195 255z"/>
<path style="fill:#a8cbe6; stroke:none;" d="M194 256L195 257L194 256z"/>
<path style="fill:#c9e0f0; stroke:none;" d="M449 256L449 344L450 344L450 283L449 256z"/>
<path style="fill:#6ea9d6; stroke:none;" d="M193 257L194 258L193 257M192 258L193 259L192 258z"/>
<path style="fill:#c9e0f0; stroke:none;" d="M190 259L191 260L190 259M189 260L190 261L189 260z"/>
<path style="fill:#a8cbe6; stroke:none;" d="M188 261L189 262L188 261z"/>
<path style="fill:#6ea9d6; stroke:none;" d="M187 262L188 263L187 262M186 263L187 264L186 263z"/>
<path style="fill:#c9e0f0; stroke:none;" d="M184 264L185 265L184 264z"/>
<path style="fill:#a8cbe6; stroke:none;" d="M183 265L184 266L183 265z"/>
<path style="fill:#6ea9d6; stroke:none;" d="M182 266L183 267L182 266M181 267L182 268L181 267z"/>
<path style="fill:#c9e0f0; stroke:none;" d="M179 268L180 269L179 268z"/>
<path style="fill:#a8cbe6; stroke:none;" d="M178 269L179 270L178 269M177 270L178 271L177 270z"/>
<path style="fill:#6ea9d6; stroke:none;" d="M176 271L177 272L176 271M175 272L176 273L175 272z"/>
<path style="fill:#c9e0f0; stroke:none;" d="M173 273L174 274L173 273z"/>
<path style="fill:#a8cbe6; stroke:none;" d="M172 274L173 275L172 274z"/>
<path style="fill:#6ea9d6; stroke:none;" d="M171 275L172 276L171 275M170 276L171 277L170 276z"/>
<path style="fill:#c9e0f0; stroke:none;" d="M168 277L169 278L168 277z"/>
<path style="fill:#a8cbe6; stroke:none;" d="M167 278L168 279L167 278M166 279L167 280L166 279z"/>
<path style="fill:#6ea9d6; stroke:none;" d="M165 280L166 281L165 280z"/>
<path style="fill:#c9e0f0; stroke:none;" d="M163 281L164 282L163 281z"/>
<path style="fill:#6ea9d6; stroke:none;" d="M164 281L165 282L164 281z"/>
<path style="fill:#c9e0f0; stroke:none;" d="M162 282L163 283L162 282z"/>
<path style="fill:#a8cbe6; stroke:none;" d="M161 283L162 284L161 283z"/>
<path style="fill:#6ea9d6; stroke:none;" d="M160 284L161 285L160 284M159 285L160 286L159 285z"/>
<path style="fill:#c9e0f0; stroke:none;" d="M157 286L158 287L157 286z"/>
<path style="fill:#a8cbe6; stroke:none;" d="M156 287L157 288L156 287M155 288L156 289L155 288M154 289L155 290L154 289z"/>
<path style="fill:#c9e0f0; stroke:none;" d="M153 290L154 291L153 290z"/>
<path style="fill:#a8cbe6; stroke:none;" d="M152 292L153 293L152 292z"/>
<path style="fill:#c9e0f0; stroke:none;" d="M151 294L152 295L151 294z"/>
<path style="fill:#6ea9d6; stroke:none;" d="M151 295L152 296L151 295z"/>
<path style="fill:#c9e0f0; stroke:none;" d="M150 298L150 302L151 302L150 298z"/>
<path style="fill:#6ea9d6; stroke:none;" d="M151 304L152 305L151 304z"/>
<path style="fill:#c9e0f0; stroke:none;" d="M151 305L152 306L151 305z"/>
<path style="fill:#a8cbe6; stroke:none;" d="M152 307L153 308L152 307z"/>
<path style="fill:#c9e0f0; stroke:none;" d="M153 309L154 310L153 309z"/>
<path style="fill:#a8cbe6; stroke:none;" d="M154 310L155 311L154 310M155 311L156 312L155 311M156 312L157 313L156 312z"/>
<path style="fill:#c9e0f0; stroke:none;" d="M157 313L158 314L157 313z"/>
<path style="fill:#6ea9d6; stroke:none;" d="M159 314L160 315L159 314M160 315L161 316L160 315z"/>
<path style="fill:#a8cbe6; stroke:none;" d="M161 316L162 317L161 316z"/>
<path style="fill:#c9e0f0; stroke:none;" d="M162 317L163 318L162 317M163 318L164 319L163 318z"/>
<path style="fill:#6ea9d6; stroke:none;" d="M164 318L165 319L164 318M165 319L166 320L165 319z"/>
<path style="fill:#a8cbe6; stroke:none;" d="M166 320L167 321L166 320M167 321L168 322L167 321z"/>
<path style="fill:#c9e0f0; stroke:none;" d="M168 322L169 323L168 322z"/>
<path style="fill:#6ea9d6; stroke:none;" d="M170 323L171 324L170 323M171 324L172 325L171 324z"/>
<path style="fill:#a8cbe6; stroke:none;" d="M172 325L173 326L172 325z"/>
<path style="fill:#c9e0f0; stroke:none;" d="M173 326L174 327L173 326z"/>
<path style="fill:#6ea9d6; stroke:none;" d="M175 327L176 328L175 327M176 328L177 329L176 328z"/>
<path style="fill:#a8cbe6; stroke:none;" d="M177 329L178 330L177 329M178 330L179 331L178 330z"/>
<path style="fill:#c9e0f0; stroke:none;" d="M179 331L180 332L179 331z"/>
<path style="fill:#6ea9d6; stroke:none;" d="M181 332L182 333L181 332M182 333L183 334L182 333z"/>
<path style="fill:#a8cbe6; stroke:none;" d="M183 334L184 335L183 334z"/>
<path style="fill:#c9e0f0; stroke:none;" d="M184 335L185 336L184 335z"/>
<path style="fill:#6ea9d6; stroke:none;" d="M186 336L187 337L186 336M187 337L188 338L187 337z"/>
<path style="fill:#a8cbe6; stroke:none;" d="M188 338L189 339L188 338z"/>
<path style="fill:#c9e0f0; stroke:none;" d="M189 339L190 340L189 339M190 340L191 341L190 340z"/>
<path style="fill:#6ea9d6; stroke:none;" d="M192 341L193 342L192 341M193 342L194 343L193 342z"/>
<path style="fill:#a8cbe6; stroke:none;" d="M194 343L195 344L194 343z"/>
<path style="fill:#c9e0f0; stroke:none;" d="M195 344L196 345L195 344z"/>
<path style="fill:#6ea9d6; stroke:none;" d="M197 345L198 346L197 345M198 346L199 347L198 346M448 346L449 347L448 346z"/>
<path style="fill:#a8cbe6; stroke:none;" d="M199 347L200 348L199 347M448 347L449 348L448 347z"/>
<path style="fill:#c9e0f0; stroke:none;" d="M200 348L201 349L200 348M201 349L202 350L201 349z"/>
<path style="fill:#6ea9d6; stroke:none;" d="M202 349L203 350L202 349M447 349L448 350L447 349M203 350L204 351L203 350z"/>
<path style="fill:#a8cbe6; stroke:none;" d="M204 351L205 352L204 351M446 351L447 352L446 351M205 352L206 353L205 352z"/>
<path style="fill:#6ea9d6; stroke:none;" d="M445 352L446 353L445 352z"/>
<path style="fill:#c9e0f0; stroke:none;" d="M206 353L207 354L206 353z"/>
<path style="fill:#6ea9d6; stroke:none;" d="M208 354L209 355L208 354z"/>
<path style="fill:#c9e0f0; stroke:none;" d="M444 354L445 355L444 354z"/>
<path style="fill:#6ea9d6; stroke:none;" d="M209 355L210 356L209 355z"/>
<path style="fill:#c9e0f0; stroke:none;" d="M443 355L444 356L443 355z"/>
<path style="fill:#a8cbe6; stroke:none;" d="M210 356L211 357L210 356z"/>
<path style="fill:#6ea9d6; stroke:none;" d="M441 356L442 357L441 356z"/>
<path style="fill:#c9e0f0; stroke:none;" d="M211 357L212 358L211 357z"/>
<path style="fill:#a8cbe6; stroke:none;" d="M440 357L441 358L440 357z"/>
<path style="fill:#c9e0f0; stroke:none;" d="M212 358L213 359L212 358z"/>
<path style="fill:#6ea9d6; stroke:none;" d="M213 358L214 359L213 358z"/>
<path style="fill:#a8cbe6; stroke:none;" d="M438 358L439 359L438 358z"/>
<path style="fill:#6ea9d6; stroke:none;" d="M214 359L215 360L214 359M433.667 359.333L434.333 359.667L433.667 359.333z"/>
<path style="fill:#a8cbe6; stroke:none;" d="M435 359L436 360L435 359z"/>
<path style="fill:#c9e0f0; stroke:none;" d="M436 359L437 360L436 359z"/>
<path style="fill:#a8cbe6; stroke:none;" d="M215 360L216 361L215 360z"/>
<path style="fill:#6ea9d6; stroke:none;" d="M328 360L328 421L329 421L329 380L328 360z"/>
<path style="fill:#a8cbe6; stroke:none;" d="M216 361L217 362L216 361z"/>
<path style="fill:#c9e0f0; stroke:none;" d="M217 362L218 363L217 362z"/>
<path style="fill:#6ea9d6; stroke:none;" d="M219 363L220 364L219 363M220 364L221 365L220 364z"/>
<path style="fill:#a8cbe6; stroke:none;" d="M221 365L222 366L221 365z"/>
<path style="fill:#c9e0f0; stroke:none;" d="M222 366L223 367L222 366z"/>
<path style="fill:#6ea9d6; stroke:none;" d="M224 367L225 368L224 367M225 368L226 369L225 368z"/>
<path style="fill:#a8cbe6; stroke:none;" d="M226 369L227 370L226 369z"/>
<path style="fill:#c9e0f0; stroke:none;" d="M227 370L228 371L227 370M228 371L229 372L228 371z"/>
<path style="fill:#6ea9d6; stroke:none;" d="M230 372L231 373L230 372M231 373L232 374L231 373z"/>
<path style="fill:#a8cbe6; stroke:none;" d="M232 374L233 375L232 374z"/>
<path style="fill:#c9e0f0; stroke:none;" d="M233 375L234 376L233 375z"/>
<path style="fill:#6ea9d6; stroke:none;" d="M235 376L236 377L235 376M236 377L237 378L236 377z"/>
<path style="fill:#a8cbe6; stroke:none;" d="M237 378L238 379L237 378z"/>
<path style="fill:#c9e0f0; stroke:none;" d="M238 379L239 380L238 379M239 380L240 381L239 380z"/>
<path style="fill:#6ea9d6; stroke:none;" d="M240 380L241 381L240 380M241 381L242 382L241 381z"/>
<path style="fill:#a8cbe6; stroke:none;" d="M242 382L243 383L242 382M243 383L244 384L243 383z"/>
<path style="fill:#c9e0f0; stroke:none;" d="M244 384L245 385L244 384z"/>
<path style="fill:#6ea9d6; stroke:none;" d="M246 385L247 386L246 385M247 386L248 387L247 386z"/>
<path style="fill:#a8cbe6; stroke:none;" d="M248 387L249 388L248 387z"/>
<path style="fill:#c9e0f0; stroke:none;" d="M249 388L250 389L249 388M250 389L251 390L250 389z"/>
<path style="fill:#6ea9d6; stroke:none;" d="M251 389L252 390L251 389M252 390L253 391L252 390z"/>
<path style="fill:#a8cbe6; stroke:none;" d="M253 391L254 392L253 391M254 392L255 393L254 392z"/>
<path style="fill:#c9e0f0; stroke:none;" d="M255 393L256 394L255 393z"/>
<path style="fill:#6ea9d6; stroke:none;" d="M257 394L258 395L257 394M258 395L259 396L258 395z"/>
<path style="fill:#a8cbe6; stroke:none;" d="M259 396L260 397L259 396z"/>
<path style="fill:#c9e0f0; stroke:none;" d="M260 397L261 398L260 397z"/>
<path style="fill:#6ea9d6; stroke:none;" d="M262 398L263 399L262 398M263 399L264 400L263 399z"/>
<path style="fill:#a8cbe6; stroke:none;" d="M264 400L265 401L264 400M265 401L266 402L265 401z"/>
<path style="fill:#c9e0f0; stroke:none;" d="M266 402L267 403L266 402z"/>
<path style="fill:#6ea9d6; stroke:none;" d="M268 403L269 404L268 403M269 404L270 405L269 404z"/>
<path style="fill:#a8cbe6; stroke:none;" d="M270 405L271 406L270 405z"/>
<path style="fill:#c9e0f0; stroke:none;" d="M271 406L272 407L271 406z"/>
<path style="fill:#6ea9d6; stroke:none;" d="M273 407L274 408L273 407M274 408L275 409L274 408z"/>
<path style="fill:#a8cbe6; stroke:none;" d="M275 409L276 410L275 409z"/>
<path style="fill:#c9e0f0; stroke:none;" d="M276 410L277 411L276 410M277 411L278 412L277 411z"/>
<path style="fill:#6ea9d6; stroke:none;" d="M278 411L279 412L278 411M279 412L280 413L279 412z"/>
<path style="fill:#a8cbe6; stroke:none;" d="M280 413L281 414L280 413M281 414L282 415L281 414z"/>
<path style="fill:#c9e0f0; stroke:none;" d="M282 415L283 416L282 415z"/>
<path style="fill:#6ea9d6; stroke:none;" d="M284 416L285 417L284 416M285 417L286 418L285 417z"/>
<path style="fill:#a8cbe6; stroke:none;" d="M286 418L287 419L286 418z"/>
<path style="fill:#c9e0f0; stroke:none;" d="M287 419L288 420L287 419M288 420L289 421L288 420z"/>
<path style="fill:#6ea9d6; stroke:none;" d="M289 420L290 421L289 420M290 421L291 422L290 421z"/>
<path style="fill:#a8cbe6; stroke:none;" d="M328.333 421.667L328.667 422.333L328.333 421.667M291 422L292 423L291 422M292 423L293 424L292 423z"/>
<path style="fill:#c9e0f0; stroke:none;" d="M328 423L329 424L328 423M293 424L294 425L293 424z"/>
<path style="fill:#6ea9d6; stroke:none;" d="M295 425L296 426L295 425z"/>
<path style="fill:#a8cbe6; stroke:none;" d="M327 425L328 426L327 425z"/>
<path style="fill:#6ea9d6; stroke:none;" d="M296 426L297 427L296 426z"/>
<path style="fill:#a8cbe6; stroke:none;" d="M297 427L298 428L297 427M326 427L327 428L326 427z"/>
<path style="fill:#c9e0f0; stroke:none;" d="M298 428L299 429L298 428z"/>
<path style="fill:#6ea9d6; stroke:none;" d="M325 428L326 429L325 428M300 429L301 430L300 429M301 430L302 431L301 430z"/>
<path style="fill:#c9e0f0; stroke:none;" d="M324 430L325 431L324 430z"/>
<path style="fill:#a8cbe6; stroke:none;" d="M302 431L303 432L302 431z"/>
<path style="fill:#6ea9d6; stroke:none;" d="M322 431L323 432L322 431z"/>
<path style="fill:#c9e0f0; stroke:none;" d="M303 432L304 433L303 432z"/>
<path style="fill:#a8cbe6; stroke:none;" d="M321 432L322 433L321 432M305 433L306 434L305 433z"/>
<path style="fill:#6ea9d6; stroke:none;" d="M319 433L320 434L319 433z"/>
<path style="fill:#c9e0f0; stroke:none;" d="M307 434L308 435L307 434z"/>
<path style="fill:#a8cbe6; stroke:none;" d="M308 434L309 435L308 434z"/>
<path style="fill:#6ea9d6; stroke:none;" d="M309 434L310 435L309 434M316 434L317 435L316 434z"/>
<path style="fill:#a8cbe6; stroke:none;" d="M317 434L318 435L317 434z"/>
</svg>
