<?xml version="1.0" standalone="yes"?>
<svg xmlns="http://www.w3.org/2000/svg" width="600" height="600">
<path style="fill:#ffffff; stroke:none;" d="M0 0L0 600L600 600L600 0L0 0z"/>
<path style="fill:#c9e0f0; stroke:none;" d="M298 150L298 151L302 151L298 150M294 151L295 152L294 151z"/>
<path style="fill:#6ea9d6; stroke:none;" d="M295 151L296 152L295 151z"/>
<path style="fill:#3185c5; stroke:none;" d="M240 328L240 407C240 417.166 237.367 431.997 243.147 440.96C249.01 450.05 259.591 449 269 449L332 449C341.157 449 351.177 449.761 356.853 440.96C362.633 431.997 360 417.166 360 407L360 328L410 328C417.028 328 425.179 329.359 430.468 323.671C440.768 312.59 430.271 300.859 422.919 292C403.691 268.832 384.73 245.414 365.803 222C351.203 203.937 336.541 185.908 321.75 168C315.882 160.895 310.355 151.08 300 151.08C289.645 151.08 284.118 160.895 278.25 168C263.459 185.908 248.797 203.937 234.197 222C215.27 245.414 196.308 268.832 177.081 292C169.729 300.859 159.232 312.59 169.532 323.671C174.821 329.359 182.972 328 190 328L240 328z"/>
<path style="fill:#6ea9d6; stroke:none;" d="M304 151L305 152L304 151z"/>
<path style="fill:#c9e0f0; stroke:none;" d="M305 151L306 152L305 151z"/>
<path style="fill:#a8cbe6; stroke:none;" d="M292 152L293 153L292 152M307 152L308 153L307 152z"/>
<path style="fill:#c9e0f0; stroke:none;" d="M290 153L291 154L290 153M309 153L310 154L309 153z"/>
<path style="fill:#a8cbe6; stroke:none;" d="M289 154L290 155L289 154M310 154L311 155L310 154M288 155L289 156L288 155M311 155L312 156L311 155M287 156L288 157L287 156M312 156L313 157L312 156z"/>
<path style="fill:#c9e0f0; stroke:none;" d="M286 157L287 158L286 157M313 157L314 158L313 157z"/>
<path style="fill:#6ea9d6; stroke:none;" d="M285 159L286 160L285 159M314 159L315 160L314 159M284 160L285 161L284 160M315 160L316 161L315 160z"/>
<path style="fill:#a8cbe6; stroke:none;" d="M283 161L284 162L283 161M316 161L317 162L316 161z"/>
<path style="fill:#c9e0f0; stroke:none;" d="M282 162L283 163L282 162M317 162L318 163L317 162M281 163L282 164L281 163M318 163L319 164L318 163z"/>
<path style="fill:#6ea9d6; stroke:none;" d="M281 164L282 165L281 164M318 164L319 165L318 164M280 165L281 166L280 165M319 165L320 166L319 165z"/>
<path style="fill:#a8cbe6; stroke:none;" d="M279 166L280 167L279 166M320 166L321 167L320 166M278 167L279 168L278 167M321 167L322 168L321 167z"/>
<path style="fill:#c9e0f0; stroke:none;" d="M277 168L278 169L277 168M322 168L323 169L322 168z"/>
<path style="fill:#6ea9d6; stroke:none;" d="M276 170L277 171L276 170M323 170L324 171L323 170M275 171L276 172L275 171M324 171L325 172L324 171z"/>
<path style="fill:#a8cbe6; stroke:none;" d="M274 172L275 173L274 172M325 172L326 173L325 172z"/>
<path style="fill:#c9e0f0; stroke:none;" d="M273 173L274 174L273 173M326 173L327 174L326 173z"/>
<path style="fill:#6ea9d6; stroke:none;" d="M272 175L273 176L272 175M327 175L328 176L327 175M271 176L272 177L271 176M328 176L329 177L328 176z"/>
<path style="fill:#a8cbe6; stroke:none;" d="M270 177L271 178L270 177M329 177L330 178L329 177M269 178L270 179L269 178M330 178L331 179L330 178z"/>
<path style="fill:#c9e0f0; stroke:none;" d="M268 179L269 180L268 179M331 179L332 180L331 179z"/>
<path style="fill:#6ea9d6; stroke:none;" d="M267 181L268 182L267 181M332 181L333 182L332 181M266 182L267 183L266 182M333 182L334 183L333 182z"/>
<path style="fill:#a8cbe6; stroke:none;" d="M265 183L266 184L265 183M334 183L335 184L334 183z"/>
<path style="fill:#c9e0f0; stroke:none;" d="M264 184L265 185L264 184M335 184L336 185L335 184z"/>
<path style="fill:#6ea9d6; stroke:none;" d="M263 186L264 187L263 186M336 186L337 187L336 186M262 187L263 188L262 187M337 187L338 188L337 187z"/>
<path style="fill:#a8cbe6; stroke:none;" d="M261 188L262 189L261 188M338 188L339 189L338 188z"/>
<path style="fill:#c9e0f0; stroke:none;" d="M260 189L261 190L260 189M339 189L340 190L339 189M259 190L260 191L259 190M340 190L341 191L340 190z"/>
<path style="fill:#6ea9d6; stroke:none;" d="M258 192L259 193L258 192M341 192L342 193L341 192M257 193L258 194L257 193M342 193L343 194L342 193z"/>
<path style="fill:#a8cbe6; stroke:none;" d="M256 194L257 195L256 194M343 194L344 195L343 194z"/>
<path style="fill:#c9e0f0; stroke:none;" d="M255 195L256 196L255 195M344 195L345 196L344 195z"/>
<path style="fill:#6ea9d6; stroke:none;" d="M254 197L255 198L254 197M345 197L346 198L345 197M253 198L254 199L253 198M346 198L347 199L346 198z"/>
<path style="fill:#a8cbe6; stroke:none;" d="M252 199L253 200L252 199M347 199L348 200L347 199z"/>
<path style="fill:#c9e0f0; stroke:none;" d="M251 200L252 201L251 200M348 200L349 201L348 200M250 201L251 202L250 201M349 201L350 202L349 201z"/>
<path style="fill:#6ea9d6; stroke:none;" d="M250 202L251 203L250 202M349 202L350 203L349 202M249 203L250 204L249 203M350 203L351 204L350 203z"/>
<path style="fill:#a8cbe6; stroke:none;" d="M248 204L249 205L248 204M351 204L352 205L351 204M247 205L248 206L247 205M352 205L353 206L352 205z"/>
<path style="fill:#c9e0f0; stroke:none;" d="M246 206L247 207L246 206M353 206L354 207L353 206z"/>
<path style="fill:#6ea9d6; stroke:none;" d="M245 208L246 209L245 208M354 208L355 209L354 208M244 209L245 210L244 209M355 209L356 210L355 209z"/>
<path style="fill:#a8cbe6; stroke:none;" d="M243 210L244 211L243 210M356 210L357 211L356 210z"/>
<path style="fill:#c9e0f0; stroke:none;" d="M242 211L243 212L242 211M357 211L358 212L357 211M241 212L242 213L241 212M358 212L359 213L358 212z"/>
<path style="fill:#6ea9d6; stroke:none;" d="M241 213L242 214L241 213M358 213L359 214L358 213M240 214L241 215L240 214M359 214L360 215L359 214z"/>
<path style="fill:#a8cbe6; stroke:none;" d="M239 215L240 216L239 215M360 215L361 216L360 215M238 216L239 217L238 216M361 216L362 217L361 216z"/>
<path style="fill:#c9e0f0; stroke:none;" d="M237 217L238 218L237 217M362 217L363 218L362 217z"/>
<path style="fill:#6ea9d6; stroke:none;" d="M236 219L237 220L236 219M363 219L364 220L363 219M235 220L236 221L235 220M364 220L365 221L364 220z"/>
<path style="fill:#a8cbe6; stroke:none;" d="M234 221L235 222L234 221M365 221L366 222L365 221z"/>
<path style="fill:#c9e0f0; stroke:none;" d="M233 222L234 223L233 222M366 222L367 223L366 222z"/>
<path style="fill:#6ea9d6; stroke:none;" d="M232 224L233 225L232 224M367 224L368 225L367 224M231 225L232 226L231 225M368 225L369 226L368 225z"/>
<path style="fill:#a8cbe6; stroke:none;" d="M230 226L231 227L230 226M369 226L370 227L369 226z"/>
<path style="fill:#c9e0f0; stroke:none;" d="M229 227L230 228L229 227M370 227L371 228L370 227M228 228L229 229L228 228M371 228L372 229L371 228z"/>
<path style="fill:#6ea9d6; stroke:none;" d="M227 230L228 231L227 230M372 230L373 231L372 230M226 231L227 232L226 231M373 231L374 232L373 231z"/>
<path style="fill:#a8cbe6; stroke:none;" d="M225 232L226 233L225 232M374 232L375 233L374 232z"/>
<path style="fill:#c9e0f0; stroke:none;" d="M224 233L225 234L224 233M375 233L376 234L375 233z"/>
<path style="fill:#6ea9d6; stroke:none;" d="M223 235L224 236L223 235M376 235L377 236L376 235M222 236L223 237L222 236M377 236L378 237L377 236z"/>
<path style="fill:#a8cbe6; stroke:none;" d="M221 237L222 238L221 237M378 237L379 238L378 237z"/>
<path style="fill:#c9e0f0; stroke:none;" d="M220 238L221 239L220 238M379 238L380 239L379 238M219 239L220 240L219 239M380 239L381 240L380 239z"/>
<path style="fill:#6ea9d6; stroke:none;" d="M219 240L220 241L219 240M380 240L381 241L380 240M218 241L219 242L218 241M381 241L382 242L381 241z"/>
<path style="fill:#a8cbe6; stroke:none;" d="M217 242L218 243L217 242M382 242L383 243L382 242M216 243L217 244L216 243M383 243L384 244L383 243z"/>
<path style="fill:#c9e0f0; stroke:none;" d="M215 244L216 245L215 244M384 244L385 245L384 244z"/>
<path style="fill:#6ea9d6; stroke:none;" d="M214 246L215 247L214 246M385 246L386 247L385 246M213 247L214 248L213 247M386 247L387 248L386 247z"/>
<path style="fill:#a8cbe6; stroke:none;" d="M212 248L213 249L212 248M387 248L388 249L387 248z"/>
<path style="fill:#c9e0f0; stroke:none;" d="M211 249L212 250L211 249M388 249L389 250L388 249M210 250L211 251L210 250M389 250L390 251L389 250z"/>
<path style="fill:#6ea9d6; stroke:none;" d="M210 251L211 252L210 251M389 251L390 252L389 251M209 252L210 253L209 252M390 252L391 253L390 252z"/>
<path style="fill:#a8cbe6; stroke:none;" d="M208 253L209 254L208 253M391 253L392 254L391 253M207 254L208 255L207 254M392 254L393 255L392 254z"/>
<path style="fill:#c9e0f0; stroke:none;" d="M206 255L207 256L206 255M393 255L394 256L393 255z"/>
<path style="fill:#6ea9d6; stroke:none;" d="M205 257L206 258L205 257M394 257L395 258L394 257M204 258L205 259L204 258M395 258L396 259L395 258z"/>
<path style="fill:#a8cbe6; stroke:none;" d="M203 259L204 260L203 259M396 259L397 260L396 259z"/>
<path style="fill:#c9e0f0; stroke:none;" d="M202 260L203 261L202 260M397 260L398 261L397 260z"/>
<path style="fill:#6ea9d6; stroke:none;" d="M201 262L202 263L201 262M398 262L399 263L398 262M200 263L201 264L200 263M399 263L400 264L399 263z"/>
<path style="fill:#a8cbe6; stroke:none;" d="M199 264L200 265L199 264M400 264L401 265L400 264M198 265L199 266L198 265M401 265L402 266L401 265z"/>
<path style="fill:#c9e0f0; stroke:none;" d="M197 266L198 267L197 266M402 266L403 267L402 266z"/>
<path style="fill:#6ea9d6; stroke:none;" d="M196 268L197 269L196 268M403 268L404 269L403 268M195 269L196 270L195 269M404 269L405 270L404 269z"/>
<path style="fill:#a8cbe6; stroke:none;" d="M194 270L195 271L194 270M405 270L406 271L405 270z"/>
<path style="fill:#c9e0f0; stroke:none;" d="M193 271L194 272L193 271M406 271L407 272L406 271z"/>
<path style="fill:#6ea9d6; stroke:none;" d="M192 273L193 274L192 273M407 273L408 274L407 273M191 274L192 275L191 274M408 274L409 275L408 274z"/>
<path style="fill:#a8cbe6; stroke:none;" d="M190 275L191 276L190 275M409 275L410 276L409 275z"/>
<path style="fill:#c9e0f0; stroke:none;" d="M189 276L190 277L189 276M410 276L411 277L410 276M188 277L189 278L188 277M411 277L412 278L411 277z"/>
<path style="fill:#6ea9d6; stroke:none;" d="M188 278L189 279L188 278M411 278L412 279L411 278M187 279L188 280L187 279M412 279L413 280L412 279z"/>
<path style="fill:#a8cbe6; stroke:none;" d="M186 280L187 281L186 280M413 280L414 281L413 280M185 281L186 282L185 281M414 281L415 282L414 281z"/>
<path style="fill:#c9e0f0; stroke:none;" d="M184 282L185 283L184 282M415 282L416 283L415 282z"/>
<path style="fill:#6ea9d6; stroke:none;" d="M183 284L184 285L183 284M416 284L417 285L416 284M182 285L183 286L182 285M417 285L418 286L417 285z"/>
<path style="fill:#a8cbe6; stroke:none;" d="M181 286L182 287L181 286M418 286L419 287L418 286z"/>
<path style="fill:#c9e0f0; stroke:none;" d="M180 287L181 288L180 287M419 287L420 288L419 287M179 288L180 289L179 288M420 288L421 289L420 288z"/>
<path style="fill:#6ea9d6; stroke:none;" d="M179 289L180 290L179 289M420 289L421 290L420 289M178 290L179 291L178 290M421 290L422 291L421 290z"/>
<path style="fill:#a8cbe6; stroke:none;" d="M177 291L178 292L177 291M422 291L423 292L422 291M176 292L177 293L176 292M423 292L424 293L423 292z"/>
<path style="fill:#c9e0f0; stroke:none;" d="M175 293L176 294L175 293M424 293L425 294L424 293z"/>
<path style="fill:#6ea9d6; stroke:none;" d="M174 295L175 296L174 295M425 295L426 296L425 295M173 296L174 297L173 296M426 296L427 297L426 296z"/>
<path style="fill:#a8cbe6; stroke:none;" d="M172 297L173 298L172 297M427 297L428 298L427 297z"/>
<path style="fill:#c9e0f0; stroke:none;" d="M171 298L172 299L171 298M428 298L429 299L428 298z"/>
<path style="fill:#6ea9d6; stroke:none;" d="M170 300L171 301L170 300M429 300L430 301L429 300M169 301L170 302L169 301M430 301L431 302L430 301z"/>
<path style="fill:#a8cbe6; stroke:none;" d="M168 302L169 303L168 302M431 302L432 303L431 302z"/>
<path style="fill:#c9e0f0; stroke:none;" d="M167 303L168 304L167 303M432 303L433 304L432 303z"/>
<path style="fill:#a8cbe6; stroke:none;" d="M166 305L167 306L166 305M433 305L434 306L433 305z"/>
<path style="fill:#c9e0f0; stroke:none;" d="M165 307L166 308L165 307M434 307L435 308L434 307z"/>
<path style="fill:#a8cbe6; stroke:none;" d="M165 308L166 309L165 308M434 308L435 309L434 308z"/>
<path style="fill:#6ea9d6; stroke:none;" d="M165 309L166 310L165 309M434 309L435 310L434 309M165 316L166 317L165 316M434 316L435 317L434 316z"/>
<path style="fill:#a8cbe6; stroke:none;" d="M165 317L166 318L165 317M434 317L435 318L434 317z"/>
<path style="fill:#6ea9d6; stroke:none;" d="M166 319L167 320L166 319M433 319L434 320L433 319z"/>
<path style="fill:#a8cbe6; stroke:none;" d="M167 321L168 322L167 321M432 321L433 322L432 321z"/>
<path style="fill:#6ea9d6; stroke:none;" d="M168 322L169 323L168 322M431 322L432 323L431 322z"/>
<path style="fill:#c9e0f0; stroke:none;" d="M169 324L170 325L169 324M430 324L431 325L430 324z"/>
<path style="fill:#6ea9d6; stroke:none;" d="M171 325L172 326L171 325M428 325L429 326L428 325z"/>
<path style="fill:#a8cbe6; stroke:none;" d="M172 326L173 327L172 326M427 326L428 327L427 326M174 327L175 328L174 327M425 327L426 328L425 327z"/>
<path style="fill:#c9e0f0; stroke:none;" d="M176 328L177 329L176 328z"/>
<path style="fill:#a8cbe6; stroke:none;" d="M177.667 328.333L178.333 328.667L177.667 328.333z"/>
<path style="fill:#6ea9d6; stroke:none;" d="M179 328L179 329L240 329L220 328L179 328M360 328L360 329L421 329L401 328L360 328z"/>
<path style="fill:#a8cbe6; stroke:none;" d="M421.667 328.333L422.333 328.667L421.667 328.333z"/>
<path style="fill:#c9e0f0; stroke:none;" d="M423 328L424 329L423 328z"/>
<path style="fill:#6ea9d6; stroke:none;" d="M240.333 433.667L240.667 434.333L240.333 433.667M359.333 433.667L359.667 434.333L359.333 433.667z"/>
<path style="fill:#a8cbe6; stroke:none;" d="M240 435L241 436L240 435M359 435L360 436L359 435z"/>
<path style="fill:#c9e0f0; stroke:none;" d="M240 436L241 437L240 436M359 436L360 437L359 436z"/>
<path style="fill:#a8cbe6; stroke:none;" d="M241 438L242 439L241 438M358 438L359 439L358 438M242 440L243 441L242 440M357 440L358 441L357 440z"/>
<path style="fill:#6ea9d6; stroke:none;" d="M243 441L244 442L243 441M356 441L357 442L356 441z"/>
<path style="fill:#c9e0f0; stroke:none;" d="M244 443L245 444L244 443M355 443L356 444L355 443M245 444L246 445L245 444M354 444L355 445L354 444z"/>
<path style="fill:#6ea9d6; stroke:none;" d="M247 445L248 446L247 445M352 445L353 446L352 445z"/>
<path style="fill:#a8cbe6; stroke:none;" d="M248 446L249 447L248 446M351 446L352 447L351 446z"/>
<path style="fill:#6ea9d6; stroke:none;" d="M250 447L251 448L250 447M349 447L350 448L349 447z"/>
<path style="fill:#a8cbe6; stroke:none;" d="M252 448L253 449L252 448z"/>
<path style="fill:#6ea9d6; stroke:none;" d="M253 448L254 449L253 448M346 448L347 449L346 448z"/>
<path style="fill:#a8cbe6; stroke:none;" d="M347 448L348 449L347 448z"/>
<path style="fill:#c9e0f0; stroke:none;" d="M256 449L256 450L344 450L317 449L256 449z"/>
</svg>
