<?xml version="1.0" standalone="no"?>
<!DOCTYPE svg PUBLIC "-//W3C//DTD SVG 20010904//EN"
 "http://www.w3.org/TR/2001/REC-SVG-20010904/DTD/svg10.dtd">
<svg version="1.0" xmlns="http://www.w3.org/2000/svg"
 width="287.000000pt" height="300.000000pt" viewBox="0 0 287.000000 300.000000"
 preserveAspectRatio="xMidYMid meet">
<metadata>
Created by potrace 1.16, written by Peter Selinger 2001-2019
</metadata>
<g transform="translate(0.000000,300.000000) scale(0.100000,-0.100000)"
fill="#000000" stroke="none">
<path d="M0 1500 l0 -1500 1435 0 1435 0 0 1500 0 1500 -1435 0 -1435 0 0
-1500z m1416 1424 c-43 -16 -111 -67 -168 -125 -21 -22 -46 -39 -56 -39 -22 0
-131 -33 -164 -51 -13 -6 -44 -29 -70 -50 -26 -22 -49 -39 -52 -39 -7 0 -46
-38 -46 -45 0 -2 -13 -26 -28 -52 -34 -57 -52 -105 -58 -153 -7 -58 -44 -153
-66 -172 -12 -10 -18 -18 -14 -18 4 0 -6 -12 -22 -27 -48 -45 -73 -108 -80
-203 -9 -129 -6 -202 12 -235 9 -16 16 -35 16 -41 0 -22 49 -102 90 -149 42
-48 76 -117 79 -160 4 -85 48 -143 147 -194 40 -21 41 -24 47 -81 7 -66 1 -94
-19 -86 -18 7 -17 2 0 -32 24 -46 98 -98 166 -116 24 -7 24 -6 -3 9 -15 9 -27
22 -27 30 0 8 -7 15 -17 15 -9 0 -13 3 -10 7 4 3 0 15 -10 25 -9 10 -11 18 -5
18 6 0 4 13 -6 33 -19 38 -20 39 -30 99 -5 27 -7 48 -4 48 8 0 77 -53 80 -62
2 -4 10 -8 17 -8 8 0 19 -9 25 -20 6 -11 27 -29 48 -39 20 -11 51 -32 68 -48
17 -15 54 -48 82 -73 29 -24 52 -53 52 -63 0 -10 -4 -15 -10 -12 -5 3 -10 -2
-11 -12 0 -16 -1 -16 -8 1 -5 14 -10 16 -15 8 -5 -8 -13 -9 -25 -2 -10 5 -21
7 -24 3 -4 -3 -14 0 -23 7 -10 9 -18 10 -22 4 -5 -7 -15 -6 -29 1 -13 7 -20
14 -17 17 3 3 1 9 -5 13 -6 3 -11 1 -11 -6 0 -8 -4 -8 -15 1 -22 18 -18 -4 4
-24 11 -10 34 -25 52 -34 48 -25 49 -42 2 -35 -57 9 -150 50 -217 97 -50 35
-62 48 -64 74 -2 18 -6 32 -9 32 -9 0 -53 -50 -53 -61 0 -5 -4 -9 -9 -9 -5 0
-12 -10 -16 -22 -16 -57 -25 -66 -58 -57 -22 6 -33 5 -39 -4 -5 -8 -8 -7 -8 6
0 9 -5 17 -11 17 -5 0 -7 -4 -4 -10 4 -6 -6 -7 -27 -3 -41 7 -43 9 -30 26 7 8
7 18 2 27 -7 12 -15 13 -40 3 -27 -10 -30 -10 -20 2 7 8 9 19 6 24 -4 5 -2 12
4 16 5 3 7 20 5 38 l-5 32 12 -27 c7 -16 19 -28 27 -29 11 0 12 -2 4 -6 -7 -2
-13 -9 -13 -14 0 -6 5 -7 11 -3 6 3 15 1 19 -6 5 -8 9 -7 13 4 4 9 1 16 -4 16
-6 0 -9 9 -6 20 3 10 1 20 -5 22 -5 2 -6 11 -3 20 4 9 13 14 21 11 8 -3 14 0
14 6 0 6 -16 9 -40 7 -22 -2 -40 0 -40 4 0 4 -9 18 -21 31 -14 16 -22 20 -27
12 -5 -9 -11 -6 -20 7 -9 15 -9 20 -1 20 8 0 6 6 -4 18 -13 15 -13 19 0 31 8
7 17 10 21 6 3 -3 0 -10 -8 -15 -8 -5 -11 -13 -6 -17 5 -4 11 -3 13 3 2 7 12
11 21 9 9 -1 11 0 5 2 -13 4 -17 16 -14 41 1 6 -5 12 -14 12 -9 0 -18 7 -21
15 -9 23 -42 28 -60 10 -23 -23 -40 2 -18 26 17 19 3 35 -22 25 -9 -3 -27 -3
-40 0 -19 5 -23 11 -19 28 5 16 4 18 -4 6 -8 -12 -12 -12 -28 2 -10 8 -22 14
-28 12 -5 -2 -11 7 -11 21 -2 20 1 23 11 15 9 -8 14 -6 18 4 4 9 2 18 -4 22
-6 3 -8 12 -6 18 10 26 -53 76 -94 76 -22 0 -30 6 -35 25 -3 14 -13 25 -23 25
-13 0 -13 -2 -2 -9 9 -6 11 -16 7 -27 -7 -16 -10 -13 -24 19 -19 42 -27 46
-35 17 -3 -12 -14 -20 -27 -20 -19 0 -20 2 -10 15 10 12 10 18 -1 31 -10 13
-10 17 0 24 10 6 10 9 1 15 -14 9 -32 -14 -23 -29 3 -5 1 -6 -5 -2 -6 4 -9 13
-5 22 3 8 2 14 -3 13 -5 0 -19 2 -31 6 l-23 7 0 679 0 679 713 -1 c629 0 707
-2 673 -15z m1424 -1231 c0 -785 -4 -1242 -10 -1233 -8 13 -12 13 -32 1 -21
-13 -22 -13 -9 3 8 9 10 20 6 24 -4 4 -10 1 -12 -5 -3 -7 -9 -13 -14 -13 -6 0
-6 7 0 18 7 14 4 20 -14 28 -19 9 -22 9 -18 -2 3 -8 10 -14 16 -14 6 0 7 -3 4
-6 -4 -4 -14 -1 -24 7 -15 12 -16 12 -10 -4 8 -22 -17 -52 -35 -41 -11 7 -10
4 9 -42 2 -6 -5 -14 -16 -17 -12 -3 -21 0 -21 5 0 6 -9 3 -21 -8 -15 -14 -20
-15 -17 -4 2 8 -4 15 -13 15 -22 0 -49 24 -49 44 0 12 -2 13 -8 3 -6 -9 -17
-8 -48 7 -48 23 -193 67 -253 76 -24 4 -59 14 -77 21 -47 20 -51 18 -22 -14
26 -29 78 -127 78 -149 0 -7 5 -13 11 -13 6 0 8 -9 4 -20 -4 -12 -2 -20 5 -20
6 0 8 4 5 10 -3 6 1 7 9 4 9 -3 14 -10 11 -14 -3 -5 -1 -11 5 -15 6 -4 8 -11
5 -16 -4 -5 -2 -9 2 -9 5 0 14 -9 21 -21 8 -12 9 -18 3 -14 -14 8 -14 -1 0
-27 8 -15 8 -19 0 -14 -6 4 -11 3 -11 -2 0 -6 11 -13 25 -16 24 -6 36 -36 15
-36 -5 0 -10 7 -10 15 0 8 -4 15 -10 15 -16 0 -12 -13 15 -44 14 -17 28 -41
31 -55 3 -14 9 -34 15 -43 8 -17 2 -18 -80 -18 l-90 0 -30 44 c-41 59 -49 83
-56 160 -9 87 -10 94 -18 102 -4 4 -21 35 -38 68 -56 113 -151 229 -207 253
-37 15 -46 34 -56 115 -4 31 -16 67 -26 80 -10 13 -21 49 -25 80 -7 55 -7 56
33 99 23 24 59 83 84 136 24 51 48 93 54 93 6 0 17 12 23 28 15 35 42 66 64
75 9 3 17 10 16 14 -1 4 -1 28 0 52 1 38 3 43 21 38 11 -3 20 -1 20 4 0 5 27
37 59 71 61 63 61 63 76 187 3 25 10 50 15 55 4 6 8 13 8 16 1 3 5 18 11 33
14 35 14 152 1 176 -5 10 -14 52 -20 92 -15 106 -19 119 -32 116 -6 -1 -15 12
-19 28 -3 17 -27 70 -53 120 -25 49 -46 94 -46 99 0 5 -10 20 -21 33 -22 22
-22 23 -4 80 21 67 20 115 -3 152 -27 42 -95 100 -125 107 -16 3 -41 18 -55
33 -15 15 -38 35 -52 44 -23 16 6 17 503 17 l527 0 0 -1247z m-1234 792 c9 -8
31 -15 49 -15 19 0 56 -10 82 -22 50 -23 147 -114 137 -129 -3 -5 -1 -9 4 -9
15 0 32 -59 38 -130 3 -36 7 -77 9 -92 2 -17 -2 -28 -8 -28 -8 0 -8 -3 -2 -8
6 -4 11 -15 13 -25 2 -14 -3 -17 -30 -16 -54 2 -224 -47 -249 -72 -22 -22 -33
-56 -44 -143 l-7 -48 29 6 c18 4 64 -6 133 -28 l105 -34 50 25 c28 14 47 22
44 19 -4 -4 0 -28 7 -53 8 -26 11 -49 7 -52 -5 -3 -9 -28 -11 -56 -2 -27 -9
-53 -15 -57 -9 -6 -9 -8 1 -8 14 0 7 -45 -11 -68 -5 -7 -7 -15 -4 -18 3 -3 -3
-26 -14 -51 -10 -25 -17 -49 -14 -53 3 -5 -2 -15 -10 -23 -8 -9 -12 -23 -9
-31 3 -9 2 -16 -4 -16 -5 0 -12 -13 -15 -29 -3 -16 -13 -36 -22 -44 -8 -9 -15
-24 -16 -34 0 -17 -1 -16 -8 1 -5 13 -10 16 -15 8 -3 -6 -13 -9 -22 -5 -10 4
-12 9 -4 18 11 13 9 125 -2 125 -3 0 -4 10 0 22 4 18 2 20 -16 16 -17 -5 -22
-2 -22 13 0 21 16 26 23 7 2 -7 8 -10 12 -6 9 9 -22 96 -43 120 -13 16 -16 16
-32 -5 -14 -17 -21 -19 -32 -9 -12 9 -19 6 -37 -18 -25 -35 -40 -37 -71 -10
-28 24 -43 25 -75 4 -14 -9 -33 -13 -42 -10 -13 4 -11 0 6 -14 15 -13 38 -20
65 -20 31 0 44 -5 54 -20 7 -12 16 -19 20 -16 17 10 92 -16 93 -33 0 -11 3 -9
9 7 5 12 15 22 22 22 11 0 11 -2 0 -8 -10 -7 -10 -15 -2 -37 9 -23 13 -26 20
-15 7 11 10 11 10 2 0 -22 -42 -31 -67 -15 -12 8 -28 13 -35 10 -8 -4 -6 -6 5
-6 9 -1 17 -3 17 -5 0 -2 2 -10 5 -18 9 -23 -123 -27 -156 -4 -19 13 -26 13
-63 0 -22 -8 -49 -13 -59 -10 -17 4 -47 -17 -47 -34 0 -18 18 -19 81 -4 68 17
247 20 262 5 5 -5 0 -18 -12 -30 -18 -18 -33 -21 -106 -21 -80 0 -109 -11 -65
-25 11 -3 19 -12 17 -18 -1 -8 23 -13 78 -15 48 -2 82 -8 87 -15 4 -7 15 -12
25 -12 12 0 17 -7 15 -20 -3 -16 -2 -17 12 -6 19 16 20 12 5 -26 -7 -20 -12
-24 -18 -14 -7 11 -12 8 -21 -10 -17 -31 -32 -40 -46 -28 -8 6 -13 3 -17 -12
-3 -12 -13 -20 -24 -19 -10 1 -21 2 -25 1 -5 0 -11 -1 -15 -2 -5 -1 -16 -5
-25 -10 -14 -8 -18 -6 -18 8 0 16 -1 16 -16 1 -13 -13 -23 -14 -53 -6 -53 15
-152 57 -183 79 -14 11 -33 19 -42 19 -9 0 -16 5 -16 10 0 6 -7 10 -15 10 -8
0 -15 4 -15 10 0 5 8 7 18 4 13 -4 12 -2 -3 7 -11 7 -23 17 -27 23 -4 6 -8 8
-8 4 0 -9 -67 34 -92 58 -19 19 -86 150 -95 186 -3 13 -6 50 -8 83 -1 33 -8
89 -15 125 -9 48 -9 82 -1 130 6 36 13 104 15 152 5 87 5 87 62 170 81 117
108 180 101 232 -7 50 18 112 61 153 69 67 83 75 144 89 67 16 99 20 155 19
35 0 63 3 63 8 0 13 31 8 46 -8z m-901 -1872 c48 -59 57 -74 51 -80 -3 -3 -13
0 -22 8 -14 11 -17 10 -25 -4 -6 -9 -17 -17 -25 -17 -8 0 -12 -5 -9 -10 3 -6
0 -12 -7 -15 -19 -8 -20 -42 -1 -49 10 -4 13 -14 9 -31 -5 -20 -3 -23 11 -18
11 4 14 3 9 -5 -12 -20 -32 -14 -44 13 -6 14 -17 25 -25 25 -7 0 -18 14 -24
30 -6 17 -19 30 -28 30 -9 0 -13 5 -10 10 3 6 1 10 -4 10 -6 0 -11 7 -11 15 0
8 -7 15 -15 15 -8 0 -15 4 -15 9 0 14 -49 8 -55 -6 -2 -7 -18 -13 -35 -13 -16
0 -30 -4 -30 -10 0 -5 7 -10 15 -10 8 0 15 -7 15 -15 0 -13 -4 -14 -20 -5 -11
6 -20 17 -20 25 0 8 -7 15 -15 15 -8 0 -15 7 -15 16 0 8 -5 12 -10 9 -6 -4 -8
-11 -4 -16 4 -7 0 -7 -12 0 -11 5 -28 12 -39 16 -16 5 -17 8 -5 15 9 6 20 4
30 -5 13 -11 17 -11 28 1 7 8 25 14 40 15 66 1 102 7 116 18 20 17 116 50 146
51 17 0 35 -12 55 -37z m-480 -72 c3 -5 -1 -15 -8 -23 -8 -7 -12 -19 -9 -27 3
-10 -3 -12 -27 -9 -17 2 -31 2 -32 -1 0 -3 -2 -14 -4 -23 -2 -10 2 -18 8 -19
7 0 -3 -5 -20 -10 -26 -8 -33 -15 -33 -34 0 -14 -5 -25 -11 -25 -7 0 -4 -11 6
-27 17 -25 17 -26 0 -19 -15 5 -16 4 -5 -9 11 -13 11 -16 -1 -13 -10 2 -14 -8
-14 -39 0 -28 -6 -48 -17 -58 -10 -8 -13 -10 -8 -3 14 16 13 29 -2 25 -10 -1
-14 26 -16 104 l-3 107 46 26 c25 15 52 38 61 51 8 13 28 26 42 28 15 2 30 5
34 6 4 0 9 -3 13 -8z m1289 -39 l18 -23 24 22 24 22 0 -22 c0 -13 10 -31 23
-42 22 -19 22 -19 3 -34 -15 -11 -16 -15 -5 -16 8 0 4 -5 -8 -11 -13 -6 -23
-15 -23 -21 0 -5 7 -4 15 3 9 7 18 10 22 6 3 -3 1 -6 -6 -6 -8 0 -10 -7 -6
-20 6 -19 3 -20 -22 -14 -43 10 -48 16 -27 31 18 13 17 14 -8 9 -21 -4 -27 0
-32 20 -7 28 -26 23 -26 -7 0 -10 -5 -19 -10 -19 -17 0 -23 29 -11 44 9 11 8
18 -4 30 -15 15 -15 16 5 16 24 0 38 26 21 43 -6 6 -11 15 -11 20 0 12 22 -3
44 -31z"/>
<path d="M1168 2013 c-38 -29 -54 -61 -38 -77 7 -7 10 -5 10 3 0 11 16 13 76
7 65 -5 81 -10 103 -33 14 -14 21 -23 14 -20 -12 8 -144 -10 -173 -24 -8 -4
-24 -7 -42 -8 -10 0 -22 -9 -27 -20 -8 -15 -5 -21 17 -32 15 -8 35 -22 46 -31
10 -9 24 -14 32 -11 8 3 16 -1 19 -9 7 -19 58 -23 170 -15 40 3 51 7 54 23 2
10 8 24 13 31 5 7 7 17 3 23 -3 5 -2 10 4 10 6 0 20 21 32 46 l21 47 -24 22
c-23 22 -130 69 -178 78 -94 18 -94 18 -132 -10z"/>
</g>
</svg>
