<?xml version="1.0" standalone="yes"?>
<svg xmlns="http://www.w3.org/2000/svg" width="600" height="600">
<path style="fill:#ffffff; stroke:none;" d="M0 0L0 600L600 600L600 0L0 0z"/>
<path style="fill:#3285b8; stroke:none;" d="M379.667 213.333L380.333 213.667L379.667 213.333z"/>
<path style="fill:#3185c5; stroke:none;" d="M397 288L399 288C406.34 278.781 419.157 271.602 422.526 259.715C427.415 242.468 400.516 214.759 384.17 213.365C372.284 212.351 363.728 221.805 356.291 229.549C353.81 232.132 349.03 234.727 349.832 238.999C350.837 244.354 360.077 251.001 363.965 254.576C375.213 264.919 387.267 276.233 397 288z"/>
<path style="fill:#3285b8; stroke:none;" d="M382 213L383 214L382 213M388 214L389 215L388 214M372 215L373 216L372 215M391 215L392 216L391 215M367 218L368 219L367 218M366.333 219.667L366.667 220.333L366.333 219.667z"/>
<path style="fill:#080ff6; stroke:none;" d="M398.333 219.667L398.667 220.333L398.333 219.667z"/>
<path style="fill:#3285b8; stroke:none;" d="M364.667 221.333L365.333 221.667L364.667 221.333M399 221L400 222L399 221z"/>
<path style="fill:#080ff6; stroke:none;" d="M400 222L401 223L400 222z"/>
<path style="fill:#3285b8; stroke:none;" d="M362 223L363 224L362 223z"/>
<path style="fill:#080ff6; stroke:none;" d="M401 223L402 224L401 223M402.667 224.333L403.333 224.667L402.667 224.333M404 225L405 226L404 225z"/>
<path style="fill:#01ffff; stroke:none;" d="M405 226L406 227L405 226M406 227L407 228L406 227z"/>
<path style="fill:#080ff6; stroke:none;" d="M407 228L408 229L407 228z"/>
<path style="fill:#3285b8; stroke:none;" d="M355 229L355 231L357 231L357 229L355 229z"/>
<path style="fill:#080ff6; stroke:none;" d="M408.333 229.667L408.667 230.333L408.333 229.667M409 231L410 232L409 231M410 232L411 233L410 232z"/>
<path style="fill:#01ffff; stroke:none;" d="M411 233L412 234L411 233z"/>
<path style="fill:#080ff6; stroke:none;" d="M412.667 234.333L413.333 234.667L412.667 234.333M414 235L415 236L414 235z"/>
<path style="fill:#3285b8; stroke:none;" d="M349 236L350 237L349 236z"/>
<path style="fill:#080ff6; stroke:none;" d="M415 236L416 237L415 236M332 253L333 254L332 253z"/>
<path style="fill:#3185c5; stroke:none;" d="M215 423C226.701 419.973 239.048 417.121 251 415.275C258.293 414.148 267.118 414.255 273.91 411.197C283.389 406.929 290.038 396.508 297.285 389.458C316.993 370.284 336.447 350.94 355.884 331.499C361.992 325.39 367.891 319.24 374.095 313.211C376.434 310.938 380.534 308.36 381.252 304.961C382.297 300.013 375.01 294.9 371.965 291.911C362.507 282.631 353.712 272.444 343.911 263.559C341.017 260.935 337.882 256.191 333.965 255.083C329.981 253.955 325.775 259.784 323.166 262.219C314.463 270.342 306.831 279.904 297.91 287.706C281.769 301.823 268.066 318.57 252.545 333.291C244.35 341.063 232.02 349.746 226.849 360.001C218.526 376.505 215.152 404.649 215 423z"/>
<path style="fill:#01ffff; stroke:none;" d="M336.667 256.333L337.333 256.667L336.667 256.333z"/>
<path style="fill:#3285b8; stroke:none;" d="M338.333 257.667L338.667 258.333L338.333 257.667M326.667 259.333L327.333 259.667L326.667 259.333M340 260L341 261L340 260M344 264L345 265L344 264M320 265L321 266L320 265M419 265L420 266L419 265z"/>
<path style="fill:#080ff6; stroke:none;" d="M347.333 266.667L347.667 267.333L347.333 266.667z"/>
<path style="fill:#3285b8; stroke:none;" d="M351 271L352 272L351 271M313 272L314 273L313 272z"/>
<path style="fill:#080ff6; stroke:none;" d="M353 273L354 274L353 273M358 278L359 279L358 278z"/>
<path style="fill:#3285b8; stroke:none;" d="M306 279L307 280L306 279z"/>
<path style="fill:#080ff6; stroke:none;" d="M359 279L360 280L359 279z"/>
<path style="fill:#3285b8; stroke:none;" d="M300.333 285.667L300.667 286.333L300.333 285.667z"/>
<path style="fill:#080ff6; stroke:none;" d="M366.333 285.667L366.667 286.333L366.333 285.667z"/>
<path style="fill:#3285b8; stroke:none;" d="M293 292L294 293L293 292M286 299L287 300L286 299M377 309L378 310L377 309M273 312L274 313L273 312M370 316L371 317L370 316M266 319L267 320L266 319M364.667 321.333L365.333 321.667L364.667 321.333M363 322L364 323L363 322M362.333 323.667L362.667 324.333L362.333 323.667M259 326L260 327L259 326M357 329L358 330L357 329M253.333 332.667L253.667 333.333L253.333 332.667M350 336L351 337L350 336M344 341L345 342L344 341M343.333 342.667L343.667 343.333L343.333 342.667M342 344L343 345L342 344M336.667 349.333L337.333 349.667L336.667 349.333M235 350L236 351L235 350M335 350L336 351L335 350M330 356L331 357L330 356M228 357L229 358L228 357M227 358L228 359L227 358M225 363L226 364L225 363M319 367L320 368L319 367M317.667 368.333L318.333 368.667L317.667 368.333M316 369L317 370L316 369M315.333 370.667L315.667 371.333L315.333 370.667M310 376L311 377L310 376M303 383L304 384L303 383M220 385L221 386L220 385M301 385L302 386L301 385M297 388L298 389L297 388M296.333 389.667L296.667 390.333L296.333 389.667M295 391L296 392L295 391M294 392L295 393L294 392M289.667 396.333L290.333 396.667L289.667 396.333M285 401L286 402L285 401M283 403L284 404L283 403M215 415L216 416L215 415M249 415L250 416L249 415z"/>
<path style="fill:#080ff6; stroke:none;" d="M244 416L245 417L244 416z"/>
<path style="fill:#3285b8; stroke:none;" d="M238 417L239 418L238 417z"/>
<path style="fill:#01ffff; stroke:none;" d="M234.333 418.667L234.667 419.333L234.333 418.667M213.667 420.333L214.333 420.667L213.667 420.333z"/>
<path style="fill:#3285b8; stroke:none;" d="M227 420L228 421L227 420z"/>
</svg>
