<?xml version="1.0" standalone="yes"?>
<svg xmlns="http://www.w3.org/2000/svg" width="600" height="600">
<path style="fill:#ffffff; stroke:none;" d="M0 0L0 600L600 600L600 0L0 0z"/>
<path style="fill:#3185c5; stroke:none;" d="M172 152.439C149.502 155.982 152 178.277 152 196L152 331L152 373C152 376.475 150.372 385.919 156.059 385.458C162.807 384.91 170.647 375.823 176 372C193.231 359.693 210.619 341.065 230 332.529C240.678 327.825 254.604 330 266 330L340 330C353.02 330 372.871 333.476 382.786 322.895C388.988 316.277 389 306.486 389 298L389 248L389 188C389 178.951 389.728 167.517 383.606 160.043C372.742 146.781 345.151 152 330 152L225 152C207.847 152 188.946 149.771 172 152.439M448 448L448 277C448 263.476 448.161 247.738 433 242.094C429.356 240.738 423.815 238.889 420.434 241.743C415.058 246.28 417 263.472 417 270C417 285.403 417.187 300.631 417.004 316C416.884 326.034 417.748 336.134 412.031 345C403.138 358.79 387.409 358 373 358L280 358C266.39 358 235.129 351.48 241.638 374C246.209 389.813 263.888 389 277 389L338 389C347.983 389 359.628 387.295 369 391.338C398.207 403.939 418.319 436.583 448 448z"/>
</svg>
