<?xml version="1.0" standalone="yes"?>
<svg xmlns="http://www.w3.org/2000/svg" width="600" height="600">
<path style="fill:#ffffff; stroke:none;" d="M0 0L0 600L600 600L600 0L0 0z"/>
<path style="fill:#3185c5; stroke:none;" d="M363 129.836C355.176 132.159 340.703 152.74 343.746 161C346.511 168.504 355.887 174.806 360.905 181C371.061 193.535 378.586 209.64 378.985 226C379.488 246.574 370.428 265.889 356.829 281C352.88 285.388 334.601 298.64 336.346 304.892C337.828 310.202 349.541 311.715 354 313C370.962 317.888 387.379 323.862 402 334.039C421.156 347.373 436.014 366.991 443.656 389C447.095 398.906 447.476 419.252 454.43 426.721C460.164 432.881 481.583 431.346 488.956 428.656C496.677 425.839 493.675 415.149 492.725 409C489.838 390.297 483.809 371.85 475.244 355C465.97 336.755 452.819 320.411 437 307.463C429.255 301.124 414.029 295.264 409.728 285.985C407.266 280.672 410.99 274.864 412.989 270C416.502 261.452 418.896 252.208 419.831 243C423.067 211.148 414.306 180.549 394.87 155C389.602 148.076 373.358 126.762 363 129.836M249 144.425C236.522 146.124 224.669 149.84 214 156.698C172.313 183.498 166.724 244.702 199.174 281C216.999 300.94 243.647 309.95 270 306.714C281.322 305.323 292.27 301.312 302 295.385C311.927 289.338 320.266 281.386 327.079 272C368.383 215.104 317.522 135.098 249 144.425M220 327.424C168.354 334.225 125.393 364.102 110.71 416C107.094 428.781 105.995 441.781 106 455C106.002 459.292 105.278 466.038 109.419 468.822C114.752 472.407 124.9 471 131 471L184 471L335 471C356.982 471 385.778 475.914 406.956 469.697C415.544 467.175 412.812 448.72 412.17 442C409.457 413.608 400.349 388.915 381.572 367C350.431 330.654 308.36 327 264 327C249.593 327 234.288 325.543 220 327.424z"/>
</svg>
