<?xml version="1.0" standalone="yes"?>
<svg xmlns="http://www.w3.org/2000/svg" width="600" height="600">
<path style="fill:#ffffff; stroke:none;" d="M0 0L0 600L600 600L600 0L0 0z"/>
<path style="fill:#3185c5; stroke:none;" d="M287 126.465C272.182 129.137 265.389 143.139 253 150.124C236.682 159.324 220.996 166.123 207.09 179.285C175.029 209.631 174 253.083 174 294C174 306.999 176.202 322.277 173.482 335C170.348 349.666 154.199 357.747 145.529 369C138.852 377.666 138.162 387.563 139.921 398C140.713 402.701 141.608 407.925 144.8 411.671C149.888 417.64 158.912 417 166 417L215 417L362 417C384.468 417 412.173 421.372 434 415.957C452.609 411.34 451.66 381.838 442.363 369.004C436.639 361.103 427.649 355.375 421.185 347.999C417.191 343.442 414.822 338.035 414.174 332C412.677 318.067 415.162 303.947 414.996 290C414.511 249.223 409.589 206.608 377.999 177.09C364.459 164.437 348.711 158.404 333 149.475C316.253 139.957 309.476 122.411 287 126.465z"/>
<path style="fill:#3587c5; stroke:none;" d="M248 434C254.541 477.641 337.004 480.738 338 434L248 434z"/>
</svg>
