<?xml version="1.0" standalone="yes"?>
<svg xmlns="http://www.w3.org/2000/svg" width="600" height="600">
<path style="fill:#ffffff; stroke:none;" d="M0 0L0 600L600 600L600 0L0 0z"/>
<path style="fill:#3185c5; stroke:none;" d="M140 171.468C117.299 175.759 114.921 222.127 136 229.867C143.396 232.582 153.223 231 161 231L212 231L385 231L441 231C449.234 231 459.578 232.722 466.996 228.467C485.252 217.994 481.457 174.619 459 171.301C439.482 168.417 417.737 171 398 171L275 171L185 171C170.604 171 154.153 168.792 140 171.468M139 285.529C116.274 290.774 115.783 336.616 137 343.892C144.527 346.473 154.134 345 162 345L213 345L385 345L441 345C449.99 345 459.992 346.472 467.985 341.521C484.91 331.037 481.219 289.056 460 285.329C439.255 281.684 415.077 285 394 285L259 285L178 285C165.73 285 150.97 282.767 139 285.529M138 399.532C116.418 404.674 116.438 449.963 136 457.437C143.869 460.443 153.726 459 162 459L212 459L385 459L441 459C449.334 459 459.545 460.542 466.999 455.995C483.415 445.98 482.716 403.215 461 399.329C439.992 395.57 415.359 399 394 399L256 399L177 399C164.781 399 149.901 396.697 138 399.532z"/>
</svg>
