<?xml version="1.0" standalone="yes"?>
<svg xmlns="http://www.w3.org/2000/svg" width="600" height="600">
<path style="fill:#ffffff; stroke:none;" d="M0 0L0 600L600 600L600 0L0 0z"/>
<path style="fill:#3185c5; stroke:none;" d="M288 136.439C267.73 139.63 249.212 153.432 240.489 172C231.038 192.119 234 215.397 234 237C234 283.304 223.867 350.868 284 364.335C292.052 366.138 300.806 366.746 309 365.572C330.097 362.549 348.881 350.176 358.741 331C369.373 310.32 366 285.512 366 263C366 221.472 375.747 168.275 333 143.873C327.139 140.527 320.619 138.123 314 136.808C306.009 135.22 296.053 135.172 288 136.439M168 300C170.476 319.594 172.978 338.807 181.309 357C198.819 395.241 239.305 427.879 283 428L283 464L317 464L317 428C385.478 427.433 427.121 361.815 432 300L398 300C394.237 329.778 385.189 358.415 360 377.24C296.275 424.866 202.667 380.535 202 300L168 300z"/>
</svg>
