<?xml version="1.0" standalone="yes"?>
<svg xmlns="http://www.w3.org/2000/svg" width="600" height="600">
<path style="fill:#ffffff; stroke:none;" d="M0 0L0 600L600 600L600 0L0 0z"/>
<path style="fill:#3185c5; stroke:none;" d="M237 152.439C219.906 155.13 211.772 167.301 211.039 184C209.031 229.805 211 276.146 211 322C211 338.649 206.507 363.64 216.8 377.985C227.723 393.208 252.802 389 269 389L372 389C388.287 389 406.992 391.552 423 388.532C436.756 385.937 447.324 373.992 447.961 360C450.088 313.214 448 265.84 448 219C448 202.293 452.715 177.003 441.61 163.004C429.403 147.617 405.283 152 388 152L288 152C271.487 152 253.315 149.871 237 152.439z"/>
<path style="fill:#79b0d9; stroke:none;" d="M377 218L378 219L377 218z"/>
<path style="fill:#9cc5e4; stroke:none;" d="M375 219L376 220L375 219z"/>
<path style="fill:#ffffff; stroke:none;" d="M313 295L311 295C307.814 288.266 296.701 269.95 288 270.546C283.971 270.822 280.755 275.338 278 277.83C275.186 280.375 271.044 282.943 270.377 287.001C269.564 291.94 274.951 295.945 278 299L305 326C308.121 329.115 312.808 335.456 317.91 332.953C326.03 328.97 333.133 315.804 339 309C352.324 293.547 365.185 277.675 378.247 262C383.963 255.141 393.189 247.297 396.627 239C399.727 231.52 380.689 216.476 374.004 221.333C365.021 227.861 358.006 239.507 350.92 248C338.649 262.706 321.787 277.972 313 295z"/>
<path style="fill:#b9d7eb; stroke:none;" d="M379 219L380 220L379 219z"/>
<path style="fill:#79b0d9; stroke:none;" d="M380 219L381 220L380 219z"/>
<path style="fill:#b9d7eb; stroke:none;" d="M374 220L375 221L374 220z"/>
<path style="fill:#9cc5e4; stroke:none;" d="M381 220L382 221L381 220z"/>
<path style="fill:#b9d7eb; stroke:none;" d="M373 221L374 222L373 221M382 221L383 222L382 221M372 222L373 223L372 222M383 222L384 223L383 222z"/>
<path style="fill:#79b0d9; stroke:none;" d="M384 222L385 223L384 222z"/>
<path style="fill:#b9d7eb; stroke:none;" d="M371 223L372 224L371 223z"/>
<path style="fill:#79b0d9; stroke:none;" d="M385 223L386 224L385 223M370 224L371 225L370 224M386 224L387 225L386 224M369 225L370 226L369 225z"/>
<path style="fill:#b9d7eb; stroke:none;" d="M387 225L388 226L387 225z"/>
<path style="fill:#79b0d9; stroke:none;" d="M368 226L369 227L368 226z"/>
<path style="fill:#b9d7eb; stroke:none;" d="M388 226L389 227L388 226z"/>
<path style="fill:#79b0d9; stroke:none;" d="M390 227L391 228L390 227z"/>
<path style="fill:#b9d7eb; stroke:none;" d="M367 228L368 229L367 228z"/>
<path style="fill:#79b0d9; stroke:none;" d="M391 228L392 229L391 228z"/>
<path style="fill:#b9d7eb; stroke:none;" d="M366 229L367 230L366 229z"/>
<path style="fill:#9cc5e4; stroke:none;" d="M392 229L393 230L392 229M365 230L366 231L365 230z"/>
<path style="fill:#b9d7eb; stroke:none;" d="M393 230L394 231L393 230z"/>
<path style="fill:#79b0d9; stroke:none;" d="M364 231L365 232L364 231z"/>
<path style="fill:#b9d7eb; stroke:none;" d="M394 231L395 232L394 231z"/>
<path style="fill:#79b0d9; stroke:none;" d="M363 232L364 233L363 232z"/>
<path style="fill:#b9d7eb; stroke:none;" d="M395 232L396 233L395 232z"/>
<path style="fill:#9cc5e4; stroke:none;" d="M396 233L397 234L396 233z"/>
<path style="fill:#b9d7eb; stroke:none;" d="M362 234L363 235L362 234z"/>
<path style="fill:#79b0d9; stroke:none;" d="M397 234L398 235L397 234z"/>
<path style="fill:#b9d7eb; stroke:none;" d="M361 235L362 236L361 235z"/>
<path style="fill:#9cc5e4; stroke:none;" d="M360 236L361 237L360 236z"/>
<path style="fill:#79b0d9; stroke:none;" d="M398 236L399 237L398 236M359 237L360 238L359 237M358 238L359 239L358 238M397 238L398 239L397 238z"/>
<path style="fill:#b9d7eb; stroke:none;" d="M396 239L397 240L396 239z"/>
<path style="fill:#3185c5; stroke:none;" d="M159.005 240.444C148.248 242.354 152 259.783 152 268L152 357L152 407C152 418.135 151.598 428.988 159.468 437.907C170.177 450.045 186.47 448 201 448L300 448L329 448C332.854 448 338.33 448.925 341.772 446.821C347.079 443.576 346.918 423.612 342.486 419.603C339.918 417.281 334.298 417.315 331 417.09C295.03 414.626 258.063 417 222 417L195 417C191.586 416.998 187.072 417.612 184.603 414.682C179.126 408.181 183 386.323 183 378L183 281C183 271.589 186.827 251.361 181.682 243.314C178.278 237.991 164.308 239.502 159.005 240.444z"/>
<path style="fill:#b9d7eb; stroke:none;" d="M357 240L358 241L357 240M356 241L357 242L356 241z"/>
<path style="fill:#79b0d9; stroke:none;" d="M395 241L396 242L395 241z"/>
<path style="fill:#9cc5e4; stroke:none;" d="M355 242L356 243L355 242M394 242L395 243L394 242z"/>
<path style="fill:#79b0d9; stroke:none;" d="M354 243L355 244L354 243z"/>
<path style="fill:#b9d7eb; stroke:none;" d="M393 243L394 244L393 243z"/>
<path style="fill:#79b0d9; stroke:none;" d="M353 244L354 245L353 244z"/>
<path style="fill:#b9d7eb; stroke:none;" d="M392 244L393 245L392 244M352 246L353 247L352 246z"/>
<path style="fill:#79b0d9; stroke:none;" d="M391 246L392 247L391 246z"/>
<path style="fill:#b9d7eb; stroke:none;" d="M351 247L352 248L351 247z"/>
<path style="fill:#79b0d9; stroke:none;" d="M390 247L391 248L390 247z"/>
<path style="fill:#9cc5e4; stroke:none;" d="M350 248L351 249L350 248M389 248L390 249L389 248z"/>
<path style="fill:#79b0d9; stroke:none;" d="M349 249L350 250L349 249z"/>
<path style="fill:#b9d7eb; stroke:none;" d="M388 249L389 250L388 249z"/>
<path style="fill:#79b0d9; stroke:none;" d="M348 250L349 251L348 250z"/>
<path style="fill:#b9d7eb; stroke:none;" d="M387 250L388 251L387 250M347 252L348 253L347 252z"/>
<path style="fill:#79b0d9; stroke:none;" d="M386 252L387 253L386 252z"/>
<path style="fill:#b9d7eb; stroke:none;" d="M346 253L347 254L346 253z"/>
<path style="fill:#79b0d9; stroke:none;" d="M385 253L386 254L385 253z"/>
<path style="fill:#9cc5e4; stroke:none;" d="M345 254L346 255L345 254M384 254L385 255L384 254z"/>
<path style="fill:#79b0d9; stroke:none;" d="M344 255L345 256L344 255z"/>
<path style="fill:#b9d7eb; stroke:none;" d="M383 255L384 256L383 255z"/>
<path style="fill:#79b0d9; stroke:none;" d="M343 256L344 257L343 256z"/>
<path style="fill:#b9d7eb; stroke:none;" d="M382 256L383 257L382 256M342 258L343 259L342 258z"/>
<path style="fill:#79b0d9; stroke:none;" d="M381 258L382 259L381 258z"/>
<path style="fill:#b9d7eb; stroke:none;" d="M341 259L342 260L341 259z"/>
<path style="fill:#79b0d9; stroke:none;" d="M380 259L381 260L380 259z"/>
<path style="fill:#9cc5e4; stroke:none;" d="M340 260L341 261L340 260M379 260L380 261L379 260z"/>
<path style="fill:#79b0d9; stroke:none;" d="M339 261L340 262L339 261z"/>
<path style="fill:#b9d7eb; stroke:none;" d="M378 261L379 262L378 261z"/>
<path style="fill:#79b0d9; stroke:none;" d="M338 262L339 263L338 262z"/>
<path style="fill:#b9d7eb; stroke:none;" d="M377 262L378 263L377 262M337 264L338 265L337 264z"/>
<path style="fill:#79b0d9; stroke:none;" d="M376 264L377 265L376 264z"/>
<path style="fill:#b9d7eb; stroke:none;" d="M336 265L337 266L336 265z"/>
<path style="fill:#79b0d9; stroke:none;" d="M375 265L376 266L375 265z"/>
<path style="fill:#9cc5e4; stroke:none;" d="M335 266L336 267L335 266M374 266L375 267L374 266z"/>
<path style="fill:#79b0d9; stroke:none;" d="M334 267L335 268L334 267z"/>
<path style="fill:#b9d7eb; stroke:none;" d="M373 267L374 268L373 267z"/>
<path style="fill:#79b0d9; stroke:none;" d="M333 268L334 269L333 268z"/>
<path style="fill:#b9d7eb; stroke:none;" d="M372 268L373 269L372 268z"/>
<path style="fill:#79b0d9; stroke:none;" d="M287 269L288 270L287 269z"/>
<path style="fill:#9cc5e4; stroke:none;" d="M288 269L289 270L288 269z"/>
<path style="fill:#79b0d9; stroke:none;" d="M289 269L290 270L289 269M285 270L286 271L285 270z"/>
<path style="fill:#b9d7eb; stroke:none;" d="M290 270L291 271L290 270z"/>
<path style="fill:#79b0d9; stroke:none;" d="M291 270L292 271L291 270z"/>
<path style="fill:#b9d7eb; stroke:none;" d="M332 270L333 271L332 270z"/>
<path style="fill:#79b0d9; stroke:none;" d="M371 270L372 271L371 270z"/>
<path style="fill:#9cc5e4; stroke:none;" d="M284 271L285 272L284 271z"/>
<path style="fill:#79b0d9; stroke:none;" d="M292 271L293 272L292 271z"/>
<path style="fill:#b9d7eb; stroke:none;" d="M331 271L332 272L331 271z"/>
<path style="fill:#79b0d9; stroke:none;" d="M370 271L371 272L370 271z"/>
<path style="fill:#b9d7eb; stroke:none;" d="M283 272L284 273L283 272z"/>
<path style="fill:#79b0d9; stroke:none;" d="M293 272L294 273L293 272z"/>
<path style="fill:#9cc5e4; stroke:none;" d="M330 272L331 273L330 272M369 272L370 273L369 272z"/>
<path style="fill:#b9d7eb; stroke:none;" d="M282 273L283 274L282 273z"/>
<path style="fill:#79b0d9; stroke:none;" d="M294 273L295 274L294 273M329 273L330 274L329 273z"/>
<path style="fill:#b9d7eb; stroke:none;" d="M368 273L369 274L368 273M281 274L282 275L281 274z"/>
<path style="fill:#79b0d9; stroke:none;" d="M295 274L296 275L295 274M328 274L329 275L328 274z"/>
<path style="fill:#b9d7eb; stroke:none;" d="M367 274L368 275L367 274M280 275L281 276L280 275z"/>
<path style="fill:#79b0d9; stroke:none;" d="M296 275L297 276L296 275z"/>
<path style="fill:#b9d7eb; stroke:none;" d="M279 276L280 277L279 276z"/>
<path style="fill:#79b0d9; stroke:none;" d="M297 276L298 277L297 276z"/>
<path style="fill:#b9d7eb; stroke:none;" d="M327 276L328 277L327 276z"/>
<path style="fill:#79b0d9; stroke:none;" d="M366 276L367 277L366 276z"/>
<path style="fill:#b9d7eb; stroke:none;" d="M278 277L279 278L278 277z"/>
<path style="fill:#79b0d9; stroke:none;" d="M298 277L299 278L298 277z"/>
<path style="fill:#b9d7eb; stroke:none;" d="M326 277L327 278L326 277z"/>
<path style="fill:#79b0d9; stroke:none;" d="M365 277L366 278L365 277z"/>
<path style="fill:#b9d7eb; stroke:none;" d="M277 278L278 279L277 278z"/>
<path style="fill:#79b0d9; stroke:none;" d="M299 278L300 279L299 278z"/>
<path style="fill:#9cc5e4; stroke:none;" d="M325 278L326 279L325 278M364 278L365 279L364 278z"/>
<path style="fill:#b9d7eb; stroke:none;" d="M276 279L277 280L276 279M299 279L300 280L299 279z"/>
<path style="fill:#79b0d9; stroke:none;" d="M324 279L325 280L324 279z"/>
<path style="fill:#b9d7eb; stroke:none;" d="M363 279L364 280L363 279z"/>
<path style="fill:#79b0d9; stroke:none;" d="M274 280L275 281L274 280z"/>
<path style="fill:#b9d7eb; stroke:none;" d="M300 280L301 281L300 280z"/>
<path style="fill:#79b0d9; stroke:none;" d="M323 280L324 281L323 280z"/>
<path style="fill:#b9d7eb; stroke:none;" d="M362 280L363 281L362 280z"/>
<path style="fill:#79b0d9; stroke:none;" d="M273 281L274 282L273 281M302 281L303 282L302 281M272 282L273 283L272 282z"/>
<path style="fill:#b9d7eb; stroke:none;" d="M322 282L323 283L322 282z"/>
<path style="fill:#79b0d9; stroke:none;" d="M361 282L362 283L361 282M271 283L272 284L271 283z"/>
<path style="fill:#b9d7eb; stroke:none;" d="M303 283L304 284L303 283M321 283L322 284L321 283z"/>
<path style="fill:#79b0d9; stroke:none;" d="M360 283L361 284L360 283M270 284L271 285L270 284z"/>
<path style="fill:#b9d7eb; stroke:none;" d="M304 284L305 285L304 284z"/>
<path style="fill:#9cc5e4; stroke:none;" d="M320 284L321 285L320 284M359 284L360 285L359 284M305 285L306 286L305 285z"/>
<path style="fill:#79b0d9; stroke:none;" d="M319 285L320 286L319 285z"/>
<path style="fill:#b9d7eb; stroke:none;" d="M358 285L359 286L358 285z"/>
<path style="fill:#9cc5e4; stroke:none;" d="M269 286L270 287L269 286z"/>
<path style="fill:#79b0d9; stroke:none;" d="M306 286L307 287L306 286M318 286L319 287L318 286z"/>
<path style="fill:#b9d7eb; stroke:none;" d="M357 286L358 287L357 286M269 287L269 290L270 290L269 287M306 287L307 288L306 287M318 287L319 288L318 287z"/>
<path style="fill:#9cc5e4; stroke:none;" d="M307 288L308 289L307 288z"/>
<path style="fill:#b9d7eb; stroke:none;" d="M317 288L318 289L317 288z"/>
<path style="fill:#79b0d9; stroke:none;" d="M356 288L357 289L356 288M308 289L309 290L308 289z"/>
<path style="fill:#b9d7eb; stroke:none;" d="M316 289L317 290L316 289z"/>
<path style="fill:#79b0d9; stroke:none;" d="M355 289L356 290L355 289M269 290L270 291L269 290z"/>
<path style="fill:#b9d7eb; stroke:none;" d="M308 290L309 291L308 290z"/>
<path style="fill:#79b0d9; stroke:none;" d="M315 290L316 291L315 290z"/>
<path style="fill:#9cc5e4; stroke:none;" d="M354 290L355 291L354 290z"/>
<path style="fill:#b9d7eb; stroke:none;" d="M270 291L271 292L270 291z"/>
<path style="fill:#9cc5e4; stroke:none;" d="M309 291L310 292L309 291z"/>
<path style="fill:#79b0d9; stroke:none;" d="M314 291L315 292L314 291z"/>
<path style="fill:#b9d7eb; stroke:none;" d="M353 291L354 292L353 291M271 292L272 293L271 292z"/>
<path style="fill:#79b0d9; stroke:none;" d="M313 292L314 293L313 292z"/>
<path style="fill:#b9d7eb; stroke:none;" d="M352 292L353 293L352 292M272 293L273 294L272 293M310 293L311 294L310 293M313 293L314 294L313 293M273 294L274 295L273 294z"/>
<path style="fill:#9cc5e4; stroke:none;" d="M311 294L312 295L311 294z"/>
<path style="fill:#b9d7eb; stroke:none;" d="M312 294L313 295L312 294z"/>
<path style="fill:#79b0d9; stroke:none;" d="M351 294L352 295L351 294z"/>
<path style="fill:#b9d7eb; stroke:none;" d="M274 295L275 296L274 295z"/>
<path style="fill:#79b0d9; stroke:none;" d="M350 295L351 296L350 295z"/>
<path style="fill:#b9d7eb; stroke:none;" d="M275 296L276 297L275 296z"/>
<path style="fill:#9cc5e4; stroke:none;" d="M349 296L350 297L349 296z"/>
<path style="fill:#b9d7eb; stroke:none;" d="M276 297L277 298L276 297M348 297L349 298L348 297M277 298L278 299L277 298M347 298L348 299L347 298M278 299L279 300L278 299M279 300L280 301L279 300z"/>
<path style="fill:#79b0d9; stroke:none;" d="M346 300L347 301L346 300z"/>
<path style="fill:#b9d7eb; stroke:none;" d="M280 301L281 302L280 301z"/>
<path style="fill:#79b0d9; stroke:none;" d="M345 301L346 302L345 301z"/>
<path style="fill:#b9d7eb; stroke:none;" d="M281 302L282 303L281 302z"/>
<path style="fill:#9cc5e4; stroke:none;" d="M344 302L345 303L344 302z"/>
<path style="fill:#b9d7eb; stroke:none;" d="M282 303L283 304L282 303M343 303L344 304L343 303M283 304L284 305L283 304M342 304L343 305L342 304M284 305L285 306L284 305M285 306L286 307L285 306z"/>
<path style="fill:#79b0d9; stroke:none;" d="M341 306L342 307L341 306z"/>
<path style="fill:#b9d7eb; stroke:none;" d="M286 307L287 308L286 307z"/>
<path style="fill:#79b0d9; stroke:none;" d="M340 307L341 308L340 307z"/>
<path style="fill:#b9d7eb; stroke:none;" d="M287 308L288 309L287 308z"/>
<path style="fill:#9cc5e4; stroke:none;" d="M339 308L340 309L339 308z"/>
<path style="fill:#b9d7eb; stroke:none;" d="M288 309L289 310L288 309M338 309L339 310L338 309M289 310L290 311L289 310M337 310L338 311L337 310M290 311L291 312L290 311M336 311L337 312L336 311M291 312L292 313L291 312z"/>
<path style="fill:#79b0d9; stroke:none;" d="M336 312L337 313L336 312z"/>
<path style="fill:#b9d7eb; stroke:none;" d="M292 313L293 314L292 313z"/>
<path style="fill:#79b0d9; stroke:none;" d="M335 313L336 314L335 313z"/>
<path style="fill:#b9d7eb; stroke:none;" d="M293 314L294 315L293 314z"/>
<path style="fill:#79b0d9; stroke:none;" d="M334 314L335 315L334 314z"/>
<path style="fill:#b9d7eb; stroke:none;" d="M294 315L295 316L294 315M333 315L334 316L333 315M295 316L296 317L295 316M332 316L333 317L332 316M296 317L297 318L296 317M331 317L332 318L331 317M297 318L298 319L297 318z"/>
<path style="fill:#79b0d9; stroke:none;" d="M331 318L332 319L331 318z"/>
<path style="fill:#b9d7eb; stroke:none;" d="M298 319L299 320L298 319z"/>
<path style="fill:#79b0d9; stroke:none;" d="M330 319L331 320L330 319z"/>
<path style="fill:#b9d7eb; stroke:none;" d="M299 320L300 321L299 320z"/>
<path style="fill:#79b0d9; stroke:none;" d="M329 320L330 321L329 320z"/>
<path style="fill:#b9d7eb; stroke:none;" d="M300 321L301 322L300 321z"/>
<path style="fill:#9cc5e4; stroke:none;" d="M328 321L329 322L328 321z"/>
<path style="fill:#b9d7eb; stroke:none;" d="M301 322L302 323L301 322M327 322L328 323L327 322M302 323L303 324L302 323M326 323L327 324L326 323M303 324L304 325L303 324M304 325L305 326L304 325z"/>
<path style="fill:#79b0d9; stroke:none;" d="M325 325L326 326L325 325z"/>
<path style="fill:#b9d7eb; stroke:none;" d="M305 326L306 327L305 326z"/>
<path style="fill:#79b0d9; stroke:none;" d="M324 326L325 327L324 326z"/>
<path style="fill:#b9d7eb; stroke:none;" d="M306 327L307 328L306 327z"/>
<path style="fill:#9cc5e4; stroke:none;" d="M323 327L324 328L323 327z"/>
<path style="fill:#b9d7eb; stroke:none;" d="M307 328L308 329L307 328M322 328L323 329L322 328M308 329L309 330L308 329M321 329L322 330L321 329M309 330L310 331L309 330M310 331L311 332L310 331z"/>
<path style="fill:#79b0d9; stroke:none;" d="M320 331L321 332L320 331z"/>
<path style="fill:#b9d7eb; stroke:none;" d="M311 332L312 333L311 332z"/>
<path style="fill:#79b0d9; stroke:none;" d="M319 332L320 333L319 332z"/>
<path style="fill:#9cc5e4; stroke:none;" d="M312 333L313 334L312 333z"/>
<path style="fill:#79b0d9; stroke:none;" d="M318 333L319 334L318 333z"/>
<path style="fill:#9cc5e4; stroke:none;" d="M314 334L315 335L314 334z"/>
<path style="fill:#b9d7eb; stroke:none;" d="M315 334L316 335L315 334z"/>
<path style="fill:#9cc5e4; stroke:none;" d="M316 334L317 335L316 334z"/>
</svg>
