<?xml version="1.0" standalone="yes"?>
<svg xmlns="http://www.w3.org/2000/svg" width="600" height="600">
<path style="fill:#ffffff; stroke:none;" d="M0 0L0 600L600 600L600 0L0 0z"/>
<path style="fill:#3185c4; stroke:none;" d="M335 211L305.707 247.715L291 268L325 268L325 369L347 369L347 268L381 268L367.583 249.83L337 211L335 211z"/>
<path style="fill:#2d3ad3; stroke:none;" d="M253 289L254 290L253 289z"/>
<path style="fill:#3185c4; stroke:none;" d="M413 314L413 413L258 413L258 314L288 314C291.557 314 297.48 315.096 300.566 312.972C304.849 310.025 304.831 291.777 299.852 289.603C295.789 287.829 289.358 289 285 289C271.762 289 254.101 285.798 242.87 294.247C231.887 302.509 234 317.873 234 330C234 357.721 230.882 387.492 234.184 415C235.655 427.247 242.785 434.939 255 436.7C269.465 438.785 285.386 437 300 437L390 437C405.237 437 426.222 440.761 434.904 424.83C439.806 415.836 438 403.842 438 394L438 332C438 322.229 439.872 310.065 434.9 301.17C425.799 284.883 403.53 289 388 289C383.125 289 373.403 287.174 369.603 290.894C365.685 294.73 366.613 311.333 372.189 313.436C383.046 317.53 401.385 314 413 314z"/>
<path style="fill:#2d3ad3; stroke:none;" d="M418 289L419 290L418 289z"/>
<path style="fill:#010101; stroke:none;" d="M249 290L250 291L249 290z"/>
<path style="fill:#2d3ad3; stroke:none;" d="M238 298L239 299L238 298z"/>
<path style="fill:#01ffff; stroke:none;" d="M235 305L236 306L235 305M234 308L235 309L234 308z"/>
<path style="fill:#2d3ad3; stroke:none;" d="M437 308L438 309L437 308z"/>
<path style="fill:#ffffff; stroke:none;" d="M257 313L258 314L257 313M413.667 313.333L414.333 313.667L413.667 313.333M257 413L258 414L257 413M413.667 413.333L414.333 413.667L413.667 413.333z"/>
<path style="fill:#01ffff; stroke:none;" d="M234 417L235 418L234 417M437 417L438 418L437 417z"/>
<path style="fill:#010101; stroke:none;" d="M235.333 420.667L235.667 421.333L235.333 420.667z"/>
<path style="fill:#2d3ad3; stroke:none;" d="M238 427L239 428L238 427z"/>
<path style="fill:#01ffff; stroke:none;" d="M249 435L250 436L249 435z"/>
<path style="fill:#2d3ad3; stroke:none;" d="M253 436L254 437L253 436z"/>
<path style="fill:#01ffff; stroke:none;" d="M418 436L419 437L418 436z"/>
</svg>
