<?xml version="1.0" standalone="no"?>
<!DOCTYPE svg PUBLIC "-//W3C//DTD SVG 20010904//EN"
 "http://www.w3.org/TR/2001/REC-SVG-20010904/DTD/svg10.dtd">
<svg version="1.0" xmlns="http://www.w3.org/2000/svg"
 width="600.000000pt" height="600.000000pt" viewBox="0 0 600.000000 600.000000"
 preserveAspectRatio="xMidYMid meet">

<g transform="translate(0.000000,600.000000) scale(0.100000,-0.100000)"
fill="#000000" stroke="none">
<path d="M3332 3845 c-12 -12 -35 -41 -50 -64 -15 -23 -38 -48 -50 -57 -12 -8
-22 -21 -22 -27 0 -7 -15 -28 -33 -48 -52 -58 -97 -117 -97 -128 0 -6 -9 -16
-21 -23 -11 -7 -36 -37 -55 -65 -19 -29 -39 -53 -44 -53 -5 0 -16 -13 -25 -30
l-16 -30 166 0 165 0 0 -505 0 -505 110 0 110 0 0 505 0 505 166 2 167 3 -37
40 c-19 22 -36 43 -36 48 0 4 -20 28 -45 55 -25 26 -45 52 -45 59 0 6 -10 20
-23 30 -13 10 -38 40 -56 66 -18 27 -39 51 -47 54 -8 3 -14 10 -14 15 0 10
-54 79 -102 133 -16 16 -28 33 -28 38 0 12 -14 6 -38 -18z"/>
<path d="M2526 3090 c-21 -4 -41 -11 -45 -17 -3 -5 -23 -20 -44 -32 -26 -16
-46 -40 -60 -70 -22 -45 -22 -54 -22 -596 0 -440 3 -558 14 -589 16 -45 62
-96 111 -122 33 -18 74 -19 875 -19 l840 0 48 22 c26 12 47 26 47 30 0 4 14
23 30 42 16 18 33 50 37 70 5 20 8 275 8 566 0 426 -3 538 -14 569 -12 34 -52
82 -104 123 -31 25 -107 33 -324 33 l-223 0 0 -115 0 -115 225 0 225 0 0 -505
0 -505 -790 0 -790 0 0 505 0 505 225 0 225 0 0 115 0 115 -227 -1 c-126 -1
-245 -5 -267 -9z"/>
</g>
</svg>
