<?xml version="1.0" standalone="no"?>
<!DOCTYPE svg PUBLIC "-//W3C//DTD SVG 20010904//EN"
 "http://www.w3.org/TR/2001/REC-SVG-20010904/DTD/svg10.dtd">
<svg version="1.0" xmlns="http://www.w3.org/2000/svg"
 width="512.000000pt" height="512.000000pt" viewBox="0 0 512.000000 512.000000"
 preserveAspectRatio="xMidYMid meet">

<g transform="translate(0.000000,512.000000) scale(0.100000,-0.100000)"
fill="#000000" stroke="none">
<path d="M2370 5113 c-379 -36 -661 -116 -980 -278 -378 -193 -717 -497 -965
-865 -42 -63 -114 -191 -160 -285 -168 -340 -248 -661 -262 -1040 -15 -426 73
-832 263 -1214 133 -269 271 -459 488 -677 221 -220 412 -357 681 -489 188
-92 309 -137 500 -185 500 -126 1002 -102 1490 71 150 53 408 183 540 271 302
202 573 480 769 788 72 113 188 353 235 486 235 662 194 1372 -115 1993 -124
250 -263 447 -458 648 -214 222 -430 379 -711 518 -296 146 -572 225 -900 255
-102 9 -333 11 -415 3z m545 -342 c628 -106 1158 -448 1511 -977 179 -267 296
-573 351 -909 24 -153 24 -497 0 -650 -108 -668 -474 -1222 -1042 -1580 -243
-153 -537 -261 -850 -312 -154 -24 -497 -24 -650 1 -657 107 -1198 456 -1557
1006 -168 257 -281 557 -335 885 -24 153 -24 497 0 650 81 497 291 912 636
1255 382 381 862 605 1401 654 108 10 418 -4 535 -23z"/>
<path d="M1402 3492 c-94 -34 -178 -123 -203 -215 -19 -69 -7 -175 27 -236 59
-109 153 -165 279 -165 101 -1 165 26 230 95 65 70 88 127 89 219 0 91 -22
147 -85 215 -87 94 -220 128 -337 87z"/>
<path d="M3530 3501 c-90 -30 -174 -103 -212 -186 -30 -68 -30 -180 0 -247 29
-66 102 -141 165 -169 78 -35 192 -34 269 4 71 35 130 101 159 176 27 73 23
185 -10 249 -57 110 -153 173 -274 178 -40 2 -83 0 -97 -5z"/>
<path d="M1285 2006 c-66 -29 -105 -106 -91 -180 14 -74 192 -308 321 -422
153 -135 363 -258 545 -318 173 -57 268 -70 500 -70 185 0 229 3 316 22 153
33 246 66 389 137 255 127 461 313 613 555 42 67 47 81 47 132 0 95 -58 153
-155 153 -75 0 -99 -17 -166 -119 -243 -367 -609 -566 -1044 -566 -206 0 -380
40 -553 126 -203 102 -350 231 -480 425 -34 51 -74 101 -89 112 -33 25 -113
32 -153 13z"/>
</g>
</svg>
