<?xml version="1.0" standalone="yes"?>
<svg xmlns="http://www.w3.org/2000/svg" width="600" height="600">
<path style="fill:#ffffff; stroke:none;" d="M0 0L0 600L600 600L600 0L0 0z"/>
<path style="fill:#3185c5; stroke:none;" d="M274 291L224 291C216.452 291 208.049 289.875 202.533 296.188C193.004 307.095 203.059 319.36 209.999 328C229.393 352.144 249.029 376.123 268.75 400C282.994 417.246 297.148 434.594 311.197 452C317.138 459.362 323.293 469.653 334 469.653C344.707 469.653 350.862 459.362 356.803 452C370.852 434.594 385.006 417.246 399.25 400C418.971 376.123 438.607 352.144 458.001 328C464.941 319.36 474.996 307.095 465.467 296.188C459.951 289.875 451.547 291 444 291L394 291L394 212C394 202.46 396.82 187.465 391.772 179.015C386.422 170.059 376.222 170 367 170L303 170C293.615 170 282.904 169.347 276.854 178.04C271.123 186.275 274 201.412 274 211L274 291z"/>
</svg>
