<?xml version="1.0" standalone="yes"?>
<svg xmlns="http://www.w3.org/2000/svg" width="600" height="600">
<path style="fill:#ffffff; stroke:none;" d="M0 0L0 600L600 600L600 0L0 0z"/>
<path style="fill:#3185c5; stroke:none;" d="M427 342L477 383.081L512 411L512 195L427 264L427 209C427 195.734 427.588 182.576 419.895 171C406.066 150.191 383.913 152 362 152L229 152L158 152C146.16 152 132.511 150.138 121 153.156C104.425 157.501 89.8475 172.223 89.0394 190C86.3544 249.061 89 308.87 89 368C89 390.729 83.5216 419.55 102.09 436.7C120.308 453.526 149.166 448 172 448L341 448C363.412 448 393.806 453.814 411.999 437.815C436.236 416.5 427 371.044 427 342z"/>
</svg>
